solid OpenSCAD_Model
  facet normal -1 0 0
    outer loop
      vertex -65 -65 0
      vertex -65 65 8
      vertex -65 65 0
    endloop
  endfacet
  facet normal -1 -0 0
    outer loop
      vertex -65 65 8
      vertex -65 -65 0
      vertex -65 -65 8
    endloop
  endfacet
  facet normal 0 0 1
    outer loop
      vertex 4.323 8.473 8
      vertex -4.523 -8.273 8
      vertex -4.425 -8.813 8
    endloop
  endfacet
  facet normal 0 0 1
    outer loop
      vertex 4.225 9.013 8
      vertex -4.804 -7.765 8
      vertex -4.523 -8.273 8
    endloop
  endfacet
  facet normal 0 0 1
    outer loop
      vertex 4.225 9.013 8
      vertex -5.26 -7.32 8
      vertex -4.804 -7.765 8
    endloop
  endfacet
  facet normal 0 0 1
    outer loop
      vertex 4.225 9.013 8
      vertex -5.737 -7.084 8
      vertex -5.26 -7.32 8
    endloop
  endfacet
  facet normal 0 -0 1
    outer loop
      vertex -6.828 -6.948 8
      vertex 4.225 9.013 8
      vertex -17.013 2.975 8
    endloop
  endfacet
  facet normal 0 0 1
    outer loop
      vertex 4.225 9.013 8
      vertex -6.828 -6.948 8
      vertex -5.737 -7.084 8
    endloop
  endfacet
  facet normal 0 0 1
    outer loop
      vertex -6.828 -6.948 8
      vertex -17.013 2.975 8
      vertex -13.66 -6.8 8
    endloop
  endfacet
  facet normal 0 0 1
    outer loop
      vertex -17.013 2.975 8
      vertex -18.591 -6.708 8
      vertex -13.66 -6.8 8
    endloop
  endfacet
  facet normal -0 0 1
    outer loop
      vertex -23.06 -4.68 8
      vertex -18.591 -6.708 8
      vertex -17.013 2.975 8
    endloop
  endfacet
  facet normal 0 0 1
    outer loop
      vertex -18.591 -6.708 8
      vertex -23.06 -4.68 8
      vertex -21.248 -6.548 8
    endloop
  endfacet
  facet normal 0 0 1
    outer loop
      vertex -21.248 -6.548 8
      vertex -23.06 -4.68 8
      vertex -21.968 -6.41 8
    endloop
  endfacet
  facet normal -0 -0 1
    outer loop
      vertex -23.03 -5.128 8
      vertex -21.968 -6.41 8
      vertex -23.06 -4.68 8
    endloop
  endfacet
  facet normal -0 -0 1
    outer loop
      vertex -22.88 -5.62 8
      vertex -21.968 -6.41 8
      vertex -23.03 -5.128 8
    endloop
  endfacet
  facet normal 0 0 1
    outer loop
      vertex -21.968 -6.41 8
      vertex -22.686 -5.959 8
      vertex -22.415 -6.218 8
    endloop
  endfacet
  facet normal -0 -0 1
    outer loop
      vertex -22.686 -5.959 8
      vertex -21.968 -6.41 8
      vertex -22.88 -5.62 8
    endloop
  endfacet
  facet normal 0 0 1
    outer loop
      vertex 65 65 8
      vertex 48.9 0.2 8
      vertex 65 -65 8
    endloop
  endfacet
  facet normal 0 0 1
    outer loop
      vertex 65 65 8
      vertex 48.823 5.175 8
      vertex 48.9 0.2 8
    endloop
  endfacet
  facet normal 0 0 1
    outer loop
      vertex 65 65 8
      vertex 48.689 6.708 8
      vertex 48.823 5.175 8
    endloop
  endfacet
  facet normal 0 0 1
    outer loop
      vertex 65 65 8
      vertex 48.46 8.2 8
      vertex 48.689 6.708 8
    endloop
  endfacet
  facet normal 0 0 1
    outer loop
      vertex 65 65 8
      vertex 47.947 10.746 8
      vertex 48.46 8.2 8
    endloop
  endfacet
  facet normal 0 0 1
    outer loop
      vertex 65 65 8
      vertex 47.318 13.238 8
      vertex 47.947 10.746 8
    endloop
  endfacet
  facet normal 0 0 1
    outer loop
      vertex 65 65 8
      vertex 46.574 15.673 8
      vertex 47.318 13.238 8
    endloop
  endfacet
  facet normal 0 0 1
    outer loop
      vertex 65 65 8
      vertex 45.716 18.049 8
      vertex 46.574 15.673 8
    endloop
  endfacet
  facet normal 0 0 1
    outer loop
      vertex 65 65 8
      vertex 44.745 20.364 8
      vertex 45.716 18.049 8
    endloop
  endfacet
  facet normal 0 0 1
    outer loop
      vertex 65 65 8
      vertex 43.664 22.615 8
      vertex 44.745 20.364 8
    endloop
  endfacet
  facet normal 0 0 1
    outer loop
      vertex 65 65 8
      vertex 42.473 24.8 8
      vertex 43.664 22.615 8
    endloop
  endfacet
  facet normal 0 0 1
    outer loop
      vertex 65 65 8
      vertex 41.175 26.918 8
      vertex 42.473 24.8 8
    endloop
  endfacet
  facet normal 0 0 1
    outer loop
      vertex 65 65 8
      vertex 39.77 28.964 8
      vertex 41.175 26.918 8
    endloop
  endfacet
  facet normal 0 0 1
    outer loop
      vertex 65 65 8
      vertex 38.26 30.938 8
      vertex 39.77 28.964 8
    endloop
  endfacet
  facet normal 0 0 1
    outer loop
      vertex 65 65 8
      vertex 36.647 32.836 8
      vertex 38.26 30.938 8
    endloop
  endfacet
  facet normal 0 0 1
    outer loop
      vertex 65 65 8
      vertex 34.932 34.657 8
      vertex 36.647 32.836 8
    endloop
  endfacet
  facet normal 0 0 1
    outer loop
      vertex 65 65 8
      vertex 33.116 36.398 8
      vertex 34.932 34.657 8
    endloop
  endfacet
  facet normal 0 0 1
    outer loop
      vertex 65 65 8
      vertex 31.201 38.057 8
      vertex 33.116 36.398 8
    endloop
  endfacet
  facet normal 0 0 1
    outer loop
      vertex 65 65 8
      vertex 29.189 39.632 8
      vertex 31.201 38.057 8
    endloop
  endfacet
  facet normal 0 0 1
    outer loop
      vertex 65 65 8
      vertex 27.08 41.12 8
      vertex 29.189 39.632 8
    endloop
  endfacet
  facet normal 0 0 1
    outer loop
      vertex 65 65 8
      vertex 25.46 42.168 8
      vertex 27.08 41.12 8
    endloop
  endfacet
  facet normal 0 0 1
    outer loop
      vertex 65 65 8
      vertex 24.68 42.6 8
      vertex 25.46 42.168 8
    endloop
  endfacet
  facet normal -0 0 1
    outer loop
      vertex 17.231 45.516 8
      vertex 24.68 42.6 8
      vertex 17.436 45.97 8
    endloop
  endfacet
  facet normal -0 0 1
    outer loop
      vertex 17.34 46.12 8
      vertex 24.68 42.6 8
      vertex 65 65 8
    endloop
  endfacet
  facet normal 0 0 1
    outer loop
      vertex 24.68 42.6 8
      vertex 17.34 46.12 8
      vertex 17.436 45.97 8
    endloop
  endfacet
  facet normal 0 0 1
    outer loop
      vertex 65 65 8
      vertex 16.565 46.46 8
      vertex 17.34 46.12 8
    endloop
  endfacet
  facet normal 0 0 1
    outer loop
      vertex 65 65 8
      vertex 15.461 46.838 8
      vertex 16.565 46.46 8
    endloop
  endfacet
  facet normal 0 0 1
    outer loop
      vertex 65 65 8
      vertex 12.565 47.638 8
      vertex 15.461 46.838 8
    endloop
  endfacet
  facet normal 0 0 1
    outer loop
      vertex 65 65 8
      vertex 9.257 48.373 8
      vertex 12.565 47.638 8
    endloop
  endfacet
  facet normal 0 0 1
    outer loop
      vertex 65 65 8
      vertex 6.14 48.9 8
      vertex 9.257 48.373 8
    endloop
  endfacet
  facet normal 0 0 1
    outer loop
      vertex 65 65 8
      vertex 3.723 49.074 8
      vertex 6.14 48.9 8
    endloop
  endfacet
  facet normal 0 0 1
    outer loop
      vertex 65 65 8
      vertex 0.377999 49.168 8
      vertex 3.723 49.074 8
    endloop
  endfacet
  facet normal 0 0 1
    outer loop
      vertex 65 65 8
      vertex -2.897 49.167 8
      vertex 0.377999 49.168 8
    endloop
  endfacet
  facet normal -0 0 1
    outer loop
      vertex -65 65 8
      vertex -2.897 49.167 8
      vertex 65 65 8
    endloop
  endfacet
  facet normal 0 0 1
    outer loop
      vertex -2.897 49.167 8
      vertex -65 65 8
      vertex -5.1 49.06 8
    endloop
  endfacet
  facet normal 0 0 1
    outer loop
      vertex -5.1 49.06 8
      vertex -65 65 8
      vertex -7.498 48.726 8
    endloop
  endfacet
  facet normal 0 0 1
    outer loop
      vertex -7.498 48.726 8
      vertex -65 65 8
      vertex -9.747 48.332 8
    endloop
  endfacet
  facet normal 0 0 1
    outer loop
      vertex -49.048 4.285 8
      vertex -65 65 8
      vertex -49.135 -0.15 8
    endloop
  endfacet
  facet normal 0 0 1
    outer loop
      vertex -48.922 6.184 8
      vertex -65 65 8
      vertex -49.048 4.285 8
    endloop
  endfacet
  facet normal 0 0 1
    outer loop
      vertex -48.74 7.7 8
      vertex -65 65 8
      vertex -48.922 6.184 8
    endloop
  endfacet
  facet normal 0 0 1
    outer loop
      vertex -47.997 11.423 8
      vertex -65 65 8
      vertex -48.74 7.7 8
    endloop
  endfacet
  facet normal 0 0 1
    outer loop
      vertex -47.01 14.973 8
      vertex -65 65 8
      vertex -47.997 11.423 8
    endloop
  endfacet
  facet normal 0 0 1
    outer loop
      vertex -45.753 18.435 8
      vertex -65 65 8
      vertex -47.01 14.973 8
    endloop
  endfacet
  facet normal 0 0 1
    outer loop
      vertex -44.2 21.9 8
      vertex -65 65 8
      vertex -45.753 18.435 8
    endloop
  endfacet
  facet normal 0 0 1
    outer loop
      vertex -43.278 23.687 8
      vertex -65 65 8
      vertex -44.2 21.9 8
    endloop
  endfacet
  facet normal 0 0 1
    outer loop
      vertex -42.282 25.432 8
      vertex -65 65 8
      vertex -43.278 23.687 8
    endloop
  endfacet
  facet normal 0 0 1
    outer loop
      vertex -41.215 27.133 8
      vertex -65 65 8
      vertex -42.282 25.432 8
    endloop
  endfacet
  facet normal 0 0 1
    outer loop
      vertex -40.08 28.788 8
      vertex -65 65 8
      vertex -41.215 27.133 8
    endloop
  endfacet
  facet normal 0 0 1
    outer loop
      vertex -38.878 30.393 8
      vertex -65 65 8
      vertex -40.08 28.788 8
    endloop
  endfacet
  facet normal 0 0 1
    outer loop
      vertex -37.612 31.948 8
      vertex -65 65 8
      vertex -38.878 30.393 8
    endloop
  endfacet
  facet normal 0 0 1
    outer loop
      vertex -36.283 33.449 8
      vertex -65 65 8
      vertex -37.612 31.948 8
    endloop
  endfacet
  facet normal 0 0 1
    outer loop
      vertex -34.895 34.895 8
      vertex -65 65 8
      vertex -36.283 33.449 8
    endloop
  endfacet
  facet normal 0 0 1
    outer loop
      vertex -33.449 36.283 8
      vertex -65 65 8
      vertex -34.895 34.895 8
    endloop
  endfacet
  facet normal 0 0 1
    outer loop
      vertex -31.948 37.612 8
      vertex -65 65 8
      vertex -33.449 36.283 8
    endloop
  endfacet
  facet normal 0 0 1
    outer loop
      vertex -30.393 38.878 8
      vertex -65 65 8
      vertex -31.948 37.612 8
    endloop
  endfacet
  facet normal 0 0 1
    outer loop
      vertex -28.788 40.08 8
      vertex -65 65 8
      vertex -30.393 38.878 8
    endloop
  endfacet
  facet normal 0 0 1
    outer loop
      vertex -27.133 41.215 8
      vertex -65 65 8
      vertex -28.788 40.08 8
    endloop
  endfacet
  facet normal 0 0 1
    outer loop
      vertex -25.432 42.282 8
      vertex -65 65 8
      vertex -27.133 41.215 8
    endloop
  endfacet
  facet normal 0 0 1
    outer loop
      vertex -23.687 43.278 8
      vertex -65 65 8
      vertex -25.432 42.282 8
    endloop
  endfacet
  facet normal 0 0 1
    outer loop
      vertex -21.9 44.2 8
      vertex -65 65 8
      vertex -23.687 43.278 8
    endloop
  endfacet
  facet normal 0 0 1
    outer loop
      vertex -19.876 45.145 8
      vertex -65 65 8
      vertex -21.9 44.2 8
    endloop
  endfacet
  facet normal 0 0 1
    outer loop
      vertex -17.894 45.975 8
      vertex -65 65 8
      vertex -19.876 45.145 8
    endloop
  endfacet
  facet normal 0 0 1
    outer loop
      vertex -15.922 46.699 8
      vertex -65 65 8
      vertex -17.894 45.975 8
    endloop
  endfacet
  facet normal 0 0 1
    outer loop
      vertex -13.928 47.328 8
      vertex -65 65 8
      vertex -15.922 46.699 8
    endloop
  endfacet
  facet normal 0 0 1
    outer loop
      vertex -11.88 47.869 8
      vertex -65 65 8
      vertex -13.928 47.328 8
    endloop
  endfacet
  facet normal 0 0 1
    outer loop
      vertex -9.747 48.332 8
      vertex -65 65 8
      vertex -11.88 47.869 8
    endloop
  endfacet
  facet normal -0 0 1
    outer loop
      vertex 48.853 -3.671 8
      vertex 65 -65 8
      vertex 48.9 0.2 8
    endloop
  endfacet
  facet normal -0 0 1
    outer loop
      vertex 48.658 -6.575 8
      vertex 65 -65 8
      vertex 48.853 -3.671 8
    endloop
  endfacet
  facet normal -0 0 1
    outer loop
      vertex 48.233 -9.216 8
      vertex 65 -65 8
      vertex 48.658 -6.575 8
    endloop
  endfacet
  facet normal -0 0 1
    outer loop
      vertex 47.5 -12.3 8
      vertex 65 -65 8
      vertex 48.233 -9.216 8
    endloop
  endfacet
  facet normal -0 0 1
    outer loop
      vertex 46.594 -15.409 8
      vertex 65 -65 8
      vertex 47.5 -12.3 8
    endloop
  endfacet
  facet normal -0 0 1
    outer loop
      vertex 45.472 -18.458 8
      vertex 65 -65 8
      vertex 46.594 -15.409 8
    endloop
  endfacet
  facet normal -0 0 1
    outer loop
      vertex 44.143 -21.432 8
      vertex 65 -65 8
      vertex 45.472 -18.458 8
    endloop
  endfacet
  facet normal -0 0 1
    outer loop
      vertex 42.615 -24.318 8
      vertex 65 -65 8
      vertex 44.143 -21.432 8
    endloop
  endfacet
  facet normal -0 0 1
    outer loop
      vertex 40.898 -27.101 8
      vertex 65 -65 8
      vertex 42.615 -24.318 8
    endloop
  endfacet
  facet normal -0 0 1
    outer loop
      vertex 39.001 -29.768 8
      vertex 65 -65 8
      vertex 40.898 -27.101 8
    endloop
  endfacet
  facet normal -0 0 1
    outer loop
      vertex 36.932 -32.306 8
      vertex 65 -65 8
      vertex 39.001 -29.768 8
    endloop
  endfacet
  facet normal -0 0 1
    outer loop
      vertex 34.7 -34.7 8
      vertex 65 -65 8
      vertex 36.932 -32.306 8
    endloop
  endfacet
  facet normal -0 0 1
    outer loop
      vertex 31.904 -37.289 8
      vertex 65 -65 8
      vertex 34.7 -34.7 8
    endloop
  endfacet
  facet normal -0 0 1
    outer loop
      vertex 28.938 -39.639 8
      vertex 65 -65 8
      vertex 31.904 -37.289 8
    endloop
  endfacet
  facet normal -0 0 1
    outer loop
      vertex 25.811 -41.745 8
      vertex 65 -65 8
      vertex 28.938 -39.639 8
    endloop
  endfacet
  facet normal -0 0 1
    outer loop
      vertex 22.533 -43.6 8
      vertex 65 -65 8
      vertex 25.811 -41.745 8
    endloop
  endfacet
  facet normal -0 0 1
    outer loop
      vertex 19.113 -45.2 8
      vertex 65 -65 8
      vertex 22.533 -43.6 8
    endloop
  endfacet
  facet normal -0 0 1
    outer loop
      vertex 15.561 -46.541 8
      vertex 65 -65 8
      vertex 19.113 -45.2 8
    endloop
  endfacet
  facet normal -0 0 1
    outer loop
      vertex 11.887 -47.616 8
      vertex 65 -65 8
      vertex 15.561 -46.541 8
    endloop
  endfacet
  facet normal -0 0 1
    outer loop
      vertex 8.1 -48.42 8
      vertex 65 -65 8
      vertex 11.887 -47.616 8
    endloop
  endfacet
  facet normal -0 0 1
    outer loop
      vertex 5.149 -48.758 8
      vertex 65 -65 8
      vertex 8.1 -48.42 8
    endloop
  endfacet
  facet normal -0 0 1
    outer loop
      vertex 1.368 -48.95 8
      vertex 65 -65 8
      vertex 5.149 -48.758 8
    endloop
  endfacet
  facet normal -0 0 1
    outer loop
      vertex -2.433 -48.977 8
      vertex 65 -65 8
      vertex 1.368 -48.95 8
    endloop
  endfacet
  facet normal 0 0 1
    outer loop
      vertex -65 -65 8
      vertex -2.433 -48.977 8
      vertex -5.44 -48.82 8
    endloop
  endfacet
  facet normal 0 0 1
    outer loop
      vertex -65 -65 8
      vertex -5.44 -48.82 8
      vertex -8.714 -48.305 8
    endloop
  endfacet
  facet normal 0 0 1
    outer loop
      vertex -65 -65 8
      vertex -8.714 -48.305 8
      vertex -12.3 -47.535 8
    endloop
  endfacet
  facet normal 0 0 1
    outer loop
      vertex -17.437 -45.322 8
      vertex -24.82 -42.36 8
      vertex -17.637 -45.772 8
    endloop
  endfacet
  facet normal 0 0 1
    outer loop
      vertex -24.82 -42.36 8
      vertex -17.54 -45.92 8
      vertex -17.637 -45.772 8
    endloop
  endfacet
  facet normal 0 0 1
    outer loop
      vertex -65 -65 8
      vertex -24.82 -42.36 8
      vertex -25.613 -41.973 8
    endloop
  endfacet
  facet normal 0 0 1
    outer loop
      vertex -65 -65 8
      vertex -49.135 -0.15 8
      vertex -65 65 8
    endloop
  endfacet
  facet normal 0 0 1
    outer loop
      vertex -49.135 -0.15 8
      vertex -65 -65 8
      vertex -49.004 -4.585 8
    endloop
  endfacet
  facet normal 0 0 1
    outer loop
      vertex -49.004 -4.585 8
      vertex -65 -65 8
      vertex -48.859 -6.484 8
    endloop
  endfacet
  facet normal 0 0 1
    outer loop
      vertex -48.859 -6.484 8
      vertex -65 -65 8
      vertex -48.66 -8 8
    endloop
  endfacet
  facet normal 0 0 1
    outer loop
      vertex -2.433 -48.977 8
      vertex -65 -65 8
      vertex 65 -65 8
    endloop
  endfacet
  facet normal 0 0 1
    outer loop
      vertex -15.481 -46.683 8
      vertex -65 -65 8
      vertex -12.3 -47.535 8
    endloop
  endfacet
  facet normal 0 0 1
    outer loop
      vertex -16.695 -46.279 8
      vertex -65 -65 8
      vertex -15.481 -46.683 8
    endloop
  endfacet
  facet normal 0 0 1
    outer loop
      vertex -17.54 -45.92 8
      vertex -65 -65 8
      vertex -16.695 -46.279 8
    endloop
  endfacet
  facet normal 0 0 1
    outer loop
      vertex -24.82 -42.36 8
      vertex -65 -65 8
      vertex -17.54 -45.92 8
    endloop
  endfacet
  facet normal 0 0 1
    outer loop
      vertex -27.26 -40.94 8
      vertex -65 -65 8
      vertex -25.613 -41.973 8
    endloop
  endfacet
  facet normal 0 0 1
    outer loop
      vertex -29.372 -39.449 8
      vertex -65 -65 8
      vertex -27.26 -40.94 8
    endloop
  endfacet
  facet normal 0 0 1
    outer loop
      vertex -31.388 -37.872 8
      vertex -65 -65 8
      vertex -29.372 -39.449 8
    endloop
  endfacet
  facet normal 0 0 1
    outer loop
      vertex -33.305 -36.211 8
      vertex -65 -65 8
      vertex -31.388 -37.872 8
    endloop
  endfacet
  facet normal 0 0 1
    outer loop
      vertex -35.123 -34.468 8
      vertex -65 -65 8
      vertex -33.305 -36.211 8
    endloop
  endfacet
  facet normal 0 0 1
    outer loop
      vertex -36.841 -32.647 8
      vertex -65 -65 8
      vertex -35.123 -34.468 8
    endloop
  endfacet
  facet normal 0 0 1
    outer loop
      vertex -38.456 -30.748 8
      vertex -65 -65 8
      vertex -36.841 -32.647 8
    endloop
  endfacet
  facet normal 0 0 1
    outer loop
      vertex -39.967 -28.774 8
      vertex -65 -65 8
      vertex -38.456 -30.748 8
    endloop
  endfacet
  facet normal 0 0 1
    outer loop
      vertex -41.373 -26.728 8
      vertex -65 -65 8
      vertex -39.967 -28.774 8
    endloop
  endfacet
  facet normal 0 0 1
    outer loop
      vertex -42.672 -24.61 8
      vertex -65 -65 8
      vertex -41.373 -26.728 8
    endloop
  endfacet
  facet normal 0 0 1
    outer loop
      vertex -43.863 -22.425 8
      vertex -65 -65 8
      vertex -42.672 -24.61 8
    endloop
  endfacet
  facet normal 0 0 1
    outer loop
      vertex -44.945 -20.173 8
      vertex -65 -65 8
      vertex -43.863 -22.425 8
    endloop
  endfacet
  facet normal 0 0 1
    outer loop
      vertex -45.915 -17.858 8
      vertex -65 -65 8
      vertex -44.945 -20.173 8
    endloop
  endfacet
  facet normal 0 0 1
    outer loop
      vertex -46.774 -15.481 8
      vertex -65 -65 8
      vertex -45.915 -17.858 8
    endloop
  endfacet
  facet normal 0 0 1
    outer loop
      vertex -47.518 -13.044 8
      vertex -65 -65 8
      vertex -46.774 -15.481 8
    endloop
  endfacet
  facet normal 0 0 1
    outer loop
      vertex -48.147 -10.549 8
      vertex -65 -65 8
      vertex -47.518 -13.044 8
    endloop
  endfacet
  facet normal 0 0 1
    outer loop
      vertex -48.66 -8 8
      vertex -65 -65 8
      vertex -48.147 -10.549 8
    endloop
  endfacet
  facet normal 0 0 1
    outer loop
      vertex 24.68 42.6 8
      vertex 17.231 45.516 8
      vertex 21.6 37.833 8
    endloop
  endfacet
  facet normal -0 0 1
    outer loop
      vertex 15.045 42.58 8
      vertex 21.6 37.833 8
      vertex 17.231 45.516 8
    endloop
  endfacet
  facet normal 0 0 1
    outer loop
      vertex 15.045 42.58 8
      vertex 14.5 26.36 8
      vertex 21.6 37.833 8
    endloop
  endfacet
  facet normal 0 0 1
    outer loop
      vertex -2.58 20.8 8
      vertex 14.5 26.36 8
      vertex 15.045 42.58 8
    endloop
  endfacet
  facet normal 0 0 1
    outer loop
      vertex 14.5 26.36 8
      vertex -2.58 20.8 8
      vertex 4.32 9.56 8
    endloop
  endfacet
  facet normal 0 0 1
    outer loop
      vertex -2.58 20.8 8
      vertex 4.225 9.013 8
      vertex 4.32 9.56 8
    endloop
  endfacet
  facet normal 0 0 1
    outer loop
      vertex -4.523 -8.273 8
      vertex 4.323 8.473 8
      vertex 4.225 9.013 8
    endloop
  endfacet
  facet normal 0 0 1
    outer loop
      vertex 4.323 8.473 8
      vertex -4.425 -8.813 8
      vertex 2.22 -20.8 8
    endloop
  endfacet
  facet normal -0 0 1
    outer loop
      vertex -4.52 -9.36 8
      vertex 2.22 -20.8 8
      vertex -4.425 -8.813 8
    endloop
  endfacet
  facet normal -0 0 1
    outer loop
      vertex -7.785 -14.834 8
      vertex 2.22 -20.8 8
      vertex -4.52 -9.36 8
    endloop
  endfacet
  facet normal 0 0 1
    outer loop
      vertex -14.693 -26.123 8
      vertex 2.22 -20.8 8
      vertex -7.785 -14.834 8
    endloop
  endfacet
  facet normal -0 0 1
    outer loop
      vertex -14.693 -26.123 8
      vertex -15.273 -42.413 8
      vertex 2.22 -20.8 8
    endloop
  endfacet
  facet normal -0 0 1
    outer loop
      vertex -21.589 -37.28 8
      vertex -15.273 -42.413 8
      vertex -14.693 -26.123 8
    endloop
  endfacet
  facet normal 0 0 1
    outer loop
      vertex -15.273 -42.413 8
      vertex -21.589 -37.28 8
      vertex -17.437 -45.322 8
    endloop
  endfacet
  facet normal -0 0 1
    outer loop
      vertex -24.82 -42.36 8
      vertex -17.437 -45.322 8
      vertex -21.589 -37.28 8
    endloop
  endfacet
  facet normal 0 0 1
    outer loop
      vertex 22.441 6.179 8
      vertex 22.831 5.23 8
      vertex 22.745 5.733 8
    endloop
  endfacet
  facet normal 0 0 1
    outer loop
      vertex 22.831 5.23 8
      vertex 22.441 6.179 8
      vertex 22.7 4.68 8
    endloop
  endfacet
  facet normal 0 0 1
    outer loop
      vertex 21.92 6.56 8
      vertex 22.7 4.68 8
      vertex 22.441 6.179 8
    endloop
  endfacet
  facet normal 0 0 1
    outer loop
      vertex 21.332 6.744 8
      vertex 22.7 4.68 8
      vertex 21.92 6.56 8
    endloop
  endfacet
  facet normal 0 0 1
    outer loop
      vertex 20.053 6.863 8
      vertex 22.7 4.68 8
      vertex 21.332 6.744 8
    endloop
  endfacet
  facet normal 0 0 1
    outer loop
      vertex 20.053 6.863 8
      vertex 16.578 -3.058 8
      vertex 22.7 4.68 8
    endloop
  endfacet
  facet normal 0 0 1
    outer loop
      vertex 13.46 7 8
      vertex 16.578 -3.058 8
      vertex 20.053 6.863 8
    endloop
  endfacet
  facet normal 0 0 1
    outer loop
      vertex 6.628 7.148 8
      vertex 16.578 -3.058 8
      vertex 13.46 7 8
    endloop
  endfacet
  facet normal 0 0 1
    outer loop
      vertex 5.537 7.284 8
      vertex 16.578 -3.058 8
      vertex 6.628 7.148 8
    endloop
  endfacet
  facet normal 0 0 1
    outer loop
      vertex 2.22 -20.8 8
      vertex 5.537 7.284 8
      vertex 5.06 7.52 8
    endloop
  endfacet
  facet normal 0 0 1
    outer loop
      vertex 5.537 7.284 8
      vertex 2.22 -20.8 8
      vertex 16.578 -3.058 8
    endloop
  endfacet
  facet normal 0 0 1
    outer loop
      vertex 4.604 7.965 8
      vertex 2.22 -20.8 8
      vertex 5.06 7.52 8
    endloop
  endfacet
  facet normal 0 0 1
    outer loop
      vertex 4.323 8.473 8
      vertex 2.22 -20.8 8
      vertex 4.604 7.965 8
    endloop
  endfacet
  facet normal 0 0 1
    outer loop
      vertex -17.013 2.975 8
      vertex 4.225 9.013 8
      vertex -2.58 20.8 8
    endloop
  endfacet
  facet normal 1 -0 0
    outer loop
      vertex 65 -65 8
      vertex 65 65 0
      vertex 65 65 8
    endloop
  endfacet
  facet normal 1 0 0
    outer loop
      vertex 65 65 0
      vertex 65 -65 8
      vertex 65 -65 0
    endloop
  endfacet
  facet normal 0 0 -1
    outer loop
      vertex -65 -65 0
      vertex 65 65 0
      vertex 65 -65 0
    endloop
  endfacet
  facet normal -0 0 -1
    outer loop
      vertex 65 65 0
      vertex -65 -65 0
      vertex -65 65 0
    endloop
  endfacet
  facet normal 0 -1 0
    outer loop
      vertex -65 -65 0
      vertex 65 -65 8
      vertex -65 -65 8
    endloop
  endfacet
  facet normal 0 -1 -0
    outer loop
      vertex 65 -65 8
      vertex -65 -65 0
      vertex 65 -65 0
    endloop
  endfacet
  facet normal 0 1 -0
    outer loop
      vertex 65 65 0
      vertex -65 65 8
      vertex 65 65 8
    endloop
  endfacet
  facet normal 0 1 0
    outer loop
      vertex -65 65 8
      vertex 65 65 0
      vertex -65 65 0
    endloop
  endfacet
  facet normal -0.216899 -0.976194 0
    outer loop
      vertex 9.257 48.373 5
      vertex 12.565 47.638 8
      vertex 9.257 48.373 8
    endloop
  endfacet
  facet normal -0.216899 -0.976194 -0
    outer loop
      vertex 12.565 47.638 8
      vertex 9.257 48.373 5
      vertex 12.565 47.638 5
    endloop
  endfacet
  facet normal -0.166707 -0.986006 0
    outer loop
      vertex 6.14 48.9 5
      vertex 9.257 48.373 8
      vertex 6.14 48.9 8
    endloop
  endfacet
  facet normal -0.166707 -0.986006 -0
    outer loop
      vertex 9.257 48.373 8
      vertex 6.14 48.9 5
      vertex 9.257 48.373 5
    endloop
  endfacet
  facet normal -0.0718042 -0.997419 0
    outer loop
      vertex 3.723 49.074 5
      vertex 6.14 48.9 8
      vertex 3.723 49.074 8
    endloop
  endfacet
  facet normal -0.0718042 -0.997419 -0
    outer loop
      vertex 6.14 48.9 8
      vertex 3.723 49.074 5
      vertex 6.14 48.9 5
    endloop
  endfacet
  facet normal -0.0280899 -0.999605 0
    outer loop
      vertex 0.377999 49.168 5
      vertex 3.723 49.074 8
      vertex 0.377999 49.168 8
    endloop
  endfacet
  facet normal -0.0280899 -0.999605 -0
    outer loop
      vertex 3.723 49.074 8
      vertex 0.377999 49.168 5
      vertex 3.723 49.074 5
    endloop
  endfacet
  facet normal 0.298645 0.954364 -0
    outer loop
      vertex 21.92 6.56 5
      vertex 21.332 6.744 8
      vertex 21.92 6.56 8
    endloop
  endfacet
  facet normal 0.298645 0.954364 0
    outer loop
      vertex 21.332 6.744 8
      vertex 21.92 6.56 5
      vertex 21.332 6.744 5
    endloop
  endfacet
  facet normal -0.280823 0.95976 0
    outer loop
      vertex 15.561 -46.541 5
      vertex 11.887 -47.616 8
      vertex 15.561 -46.541 8
    endloop
  endfacet
  facet normal -0.280823 0.95976 0
    outer loop
      vertex 11.887 -47.616 8
      vertex 15.561 -46.541 5
      vertex 11.887 -47.616 5
    endloop
  endfacet
  facet normal 0.43858 0.898692 -0
    outer loop
      vertex -24.82 -42.36 5
      vertex -25.613 -41.973 8
      vertex -24.82 -42.36 8
    endloop
  endfacet
  facet normal 0.43858 0.898692 0
    outer loop
      vertex -25.613 -41.973 8
      vertex -24.82 -42.36 5
      vertex -25.613 -41.973 5
    endloop
  endfacet
  facet normal 0.824696 -0.565576 0
    outer loop
      vertex -41.215 27.133 8
      vertex -40.08 28.788 5
      vertex -40.08 28.788 8
    endloop
  endfacet
  facet normal 0.824696 -0.565576 0
    outer loop
      vertex -40.08 28.788 5
      vertex -41.215 27.133 8
      vertex -41.215 27.133 5
    endloop
  endfacet
  facet normal 0.590288 0.807193 -0
    outer loop
      vertex 22.441 6.179 5
      vertex 21.92 6.56 8
      vertex 22.441 6.179 8
    endloop
  endfacet
  facet normal 0.590288 0.807193 0
    outer loop
      vertex 21.92 6.56 8
      vertex 22.441 6.179 5
      vertex 21.92 6.56 5
    endloop
  endfacet
  facet normal -0.99988 -0.0154755 0
    outer loop
      vertex 48.9 0.2 5
      vertex 48.823 5.175 8
      vertex 48.823 5.175 5
    endloop
  endfacet
  facet normal -0.99988 -0.0154755 0
    outer loop
      vertex 48.823 5.175 8
      vertex 48.9 0.2 5
      vertex 48.9 0.2 8
    endloop
  endfacet
  facet normal 0.84713 -0.531386 0
    outer loop
      vertex -42.282 25.432 8
      vertex -41.215 27.133 5
      vertex -41.215 27.133 8
    endloop
  endfacet
  facet normal 0.84713 -0.531386 0
    outer loop
      vertex -41.215 27.133 5
      vertex -42.282 25.432 8
      vertex -42.282 25.432 5
    endloop
  endfacet
  facet normal 0.826305 0.563223 0
    outer loop
      vertex 22.745 5.733 8
      vertex 22.441 6.179 5
      vertex 22.441 6.179 8
    endloop
  endfacet
  facet normal 0.826305 0.563223 0
    outer loop
      vertex 22.441 6.179 5
      vertex 22.745 5.733 8
      vertex 22.745 5.733 5
    endloop
  endfacet
  facet normal 0.985697 0.168526 0
    outer loop
      vertex 22.831 5.23 8
      vertex 22.745 5.733 5
      vertex 22.745 5.733 8
    endloop
  endfacet
  facet normal 0.985697 0.168526 0
    outer loop
      vertex 22.745 5.733 5
      vertex 22.831 5.23 8
      vertex 22.831 5.23 5
    endloop
  endfacet
  facet normal 0.654841 0.755766 -0
    outer loop
      vertex -31.388 -37.872 5
      vertex -33.305 -36.211 8
      vertex -31.388 -37.872 8
    endloop
  endfacet
  facet normal 0.654841 0.755766 0
    outer loop
      vertex -33.305 -36.211 8
      vertex -31.388 -37.872 5
      vertex -33.305 -36.211 5
    endloop
  endfacet
  facet normal 0.868488 -0.49571 0
    outer loop
      vertex -43.278 23.687 8
      vertex -42.282 25.432 5
      vertex -42.282 25.432 8
    endloop
  endfacet
  facet normal 0.868488 -0.49571 0
    outer loop
      vertex -42.282 25.432 5
      vertex -43.278 23.687 8
      vertex -43.278 23.687 5
    endloop
  endfacet
  facet normal 0.972788 -0.231698 0
    outer loop
      vertex 22.7 4.68 8
      vertex 22.831 5.23 5
      vertex 22.831 5.23 8
    endloop
  endfacet
  facet normal 0.972788 -0.231698 0
    outer loop
      vertex 22.831 5.23 5
      vertex 22.7 4.68 8
      vertex 22.7 4.68 5
    endloop
  endfacet
  facet normal 0 0 1
    outer loop
      vertex 47.947 10.746 5
      vertex 22.745 5.733 5
      vertex 22.831 5.23 5
    endloop
  endfacet
  facet normal 0 -0 1
    outer loop
      vertex 22.441 6.179 5
      vertex 25.46 42.168 5
      vertex 21.6 37.833 5
    endloop
  endfacet
  facet normal 0 0 1
    outer loop
      vertex 25.46 42.168 5
      vertex 22.441 6.179 5
      vertex 22.745 5.733 5
    endloop
  endfacet
  facet normal 0 0 1
    outer loop
      vertex 22.441 6.179 5
      vertex 21.6 37.833 5
      vertex 21.92 6.56 5
    endloop
  endfacet
  facet normal -0 0 1
    outer loop
      vertex 14.5 26.36 5
      vertex 21.92 6.56 5
      vertex 21.6 37.833 5
    endloop
  endfacet
  facet normal 0 0 1
    outer loop
      vertex 21.92 6.56 5
      vertex 14.5 26.36 5
      vertex 21.332 6.744 5
    endloop
  endfacet
  facet normal 0 0 1
    outer loop
      vertex 21.332 6.744 5
      vertex 14.5 26.36 5
      vertex 20.053 6.863 5
    endloop
  endfacet
  facet normal 0 0 1
    outer loop
      vertex 14.5 26.36 5
      vertex 13.46 7 5
      vertex 20.053 6.863 5
    endloop
  endfacet
  facet normal -0 0 1
    outer loop
      vertex 4.32 9.56 5
      vertex 13.46 7 5
      vertex 14.5 26.36 5
    endloop
  endfacet
  facet normal 0 0 1
    outer loop
      vertex 13.46 7 5
      vertex 4.32 9.56 5
      vertex 6.628 7.148 5
    endloop
  endfacet
  facet normal 0 0 1
    outer loop
      vertex 6.628 7.148 5
      vertex 4.32 9.56 5
      vertex 5.537 7.284 5
    endloop
  endfacet
  facet normal 0 0 1
    outer loop
      vertex 5.537 7.284 5
      vertex 4.32 9.56 5
      vertex 5.06 7.52 5
    endloop
  endfacet
  facet normal 0 0 1
    outer loop
      vertex 5.06 7.52 5
      vertex 4.32 9.56 5
      vertex 4.604 7.965 5
    endloop
  endfacet
  facet normal 0 0 1
    outer loop
      vertex 4.604 7.965 5
      vertex 4.32 9.56 5
      vertex 4.323 8.473 5
    endloop
  endfacet
  facet normal 0 0 1
    outer loop
      vertex 4.323 8.473 5
      vertex 4.32 9.56 5
      vertex 4.225 9.013 5
    endloop
  endfacet
  facet normal 0 0 1
    outer loop
      vertex 22.831 5.23 5
      vertex 48.9 0.2 5
      vertex 48.823 5.175 5
    endloop
  endfacet
  facet normal -0 0 1
    outer loop
      vertex 22.831 5.23 5
      vertex 48.823 5.175 5
      vertex 48.689 6.708 5
    endloop
  endfacet
  facet normal 0 0 1
    outer loop
      vertex 48.9 0.2 5
      vertex 22.7 4.68 5
      vertex 48.853 -3.671 5
    endloop
  endfacet
  facet normal 0 0 1
    outer loop
      vertex 22.831 5.23 5
      vertex 48.689 6.708 5
      vertex 48.46 8.2 5
    endloop
  endfacet
  facet normal 0 0 1
    outer loop
      vertex 48.853 -3.671 5
      vertex 22.7 4.68 5
      vertex 48.658 -6.575 5
    endloop
  endfacet
  facet normal 0 0 1
    outer loop
      vertex 22.831 5.23 5
      vertex 48.46 8.2 5
      vertex 47.947 10.746 5
    endloop
  endfacet
  facet normal 0 0 1
    outer loop
      vertex 48.658 -6.575 5
      vertex 22.7 4.68 5
      vertex 48.233 -9.216 5
    endloop
  endfacet
  facet normal 0 0 1
    outer loop
      vertex 22.745 5.733 5
      vertex 47.947 10.746 5
      vertex 47.318 13.238 5
    endloop
  endfacet
  facet normal 0 0 1
    outer loop
      vertex 48.233 -9.216 5
      vertex 22.7 4.68 5
      vertex 47.5 -12.3 5
    endloop
  endfacet
  facet normal 0 0 1
    outer loop
      vertex 22.745 5.733 5
      vertex 47.318 13.238 5
      vertex 46.574 15.673 5
    endloop
  endfacet
  facet normal 0 0 1
    outer loop
      vertex 22.745 5.733 5
      vertex 46.574 15.673 5
      vertex 45.716 18.049 5
    endloop
  endfacet
  facet normal 0 0 1
    outer loop
      vertex 48.9 0.2 5
      vertex 22.831 5.23 5
      vertex 22.7 4.68 5
    endloop
  endfacet
  facet normal 0 0 1
    outer loop
      vertex 22.745 5.733 5
      vertex 45.716 18.049 5
      vertex 44.745 20.364 5
    endloop
  endfacet
  facet normal -0 0 1
    outer loop
      vertex 16.578 -3.058 5
      vertex 47.5 -12.3 5
      vertex 22.7 4.68 5
    endloop
  endfacet
  facet normal 0 0 1
    outer loop
      vertex 22.745 5.733 5
      vertex 44.745 20.364 5
      vertex 43.664 22.615 5
    endloop
  endfacet
  facet normal 0 0 1
    outer loop
      vertex 47.5 -12.3 5
      vertex 16.578 -3.058 5
      vertex 46.594 -15.409 5
    endloop
  endfacet
  facet normal 0 0 1
    outer loop
      vertex 22.745 5.733 5
      vertex 43.664 22.615 5
      vertex 42.473 24.8 5
    endloop
  endfacet
  facet normal 0 0 1
    outer loop
      vertex 22.745 5.733 5
      vertex 42.473 24.8 5
      vertex 41.175 26.918 5
    endloop
  endfacet
  facet normal 0 0 1
    outer loop
      vertex 46.594 -15.409 5
      vertex 16.578 -3.058 5
      vertex 45.472 -18.458 5
    endloop
  endfacet
  facet normal 0 0 1
    outer loop
      vertex 22.745 5.733 5
      vertex 41.175 26.918 5
      vertex 39.77 28.964 5
    endloop
  endfacet
  facet normal 0 0 1
    outer loop
      vertex 45.472 -18.458 5
      vertex 16.578 -3.058 5
      vertex 44.143 -21.432 5
    endloop
  endfacet
  facet normal 0 0 1
    outer loop
      vertex 22.745 5.733 5
      vertex 39.77 28.964 5
      vertex 38.26 30.938 5
    endloop
  endfacet
  facet normal 0 0 1
    outer loop
      vertex 44.143 -21.432 5
      vertex 16.578 -3.058 5
      vertex 42.615 -24.318 5
    endloop
  endfacet
  facet normal 0 0 1
    outer loop
      vertex 22.745 5.733 5
      vertex 38.26 30.938 5
      vertex 36.647 32.836 5
    endloop
  endfacet
  facet normal 0 0 1
    outer loop
      vertex 22.745 5.733 5
      vertex 36.647 32.836 5
      vertex 34.932 34.657 5
    endloop
  endfacet
  facet normal 0 0 1
    outer loop
      vertex 42.615 -24.318 5
      vertex 16.578 -3.058 5
      vertex 40.898 -27.101 5
    endloop
  endfacet
  facet normal 0 0 1
    outer loop
      vertex 22.745 5.733 5
      vertex 34.932 34.657 5
      vertex 33.116 36.398 5
    endloop
  endfacet
  facet normal 0 0 1
    outer loop
      vertex 40.898 -27.101 5
      vertex 16.578 -3.058 5
      vertex 39.001 -29.768 5
    endloop
  endfacet
  facet normal 0 0 1
    outer loop
      vertex 22.745 5.733 5
      vertex 33.116 36.398 5
      vertex 31.201 38.057 5
    endloop
  endfacet
  facet normal 0 0 1
    outer loop
      vertex 22.745 5.733 5
      vertex 31.201 38.057 5
      vertex 29.189 39.632 5
    endloop
  endfacet
  facet normal 0 0 1
    outer loop
      vertex 39.001 -29.768 5
      vertex 16.578 -3.058 5
      vertex 36.932 -32.306 5
    endloop
  endfacet
  facet normal 0 0 1
    outer loop
      vertex 22.745 5.733 5
      vertex 29.189 39.632 5
      vertex 27.08 41.12 5
    endloop
  endfacet
  facet normal 0 0 1
    outer loop
      vertex 36.932 -32.306 5
      vertex 16.578 -3.058 5
      vertex 34.7 -34.7 5
    endloop
  endfacet
  facet normal 0 0 1
    outer loop
      vertex 22.745 5.733 5
      vertex 27.08 41.12 5
      vertex 25.46 42.168 5
    endloop
  endfacet
  facet normal 0 0 1
    outer loop
      vertex 21.6 37.833 5
      vertex 25.46 42.168 5
      vertex 24.68 42.6 5
    endloop
  endfacet
  facet normal -0 0 1
    outer loop
      vertex 2.22 -20.8 5
      vertex 34.7 -34.7 5
      vertex 16.578 -3.058 5
    endloop
  endfacet
  facet normal 0 0 1
    outer loop
      vertex 34.7 -34.7 5
      vertex 2.22 -20.8 5
      vertex 31.904 -37.289 5
    endloop
  endfacet
  facet normal 0 0 1
    outer loop
      vertex 31.904 -37.289 5
      vertex 2.22 -20.8 5
      vertex 28.938 -39.639 5
    endloop
  endfacet
  facet normal 0 0 1
    outer loop
      vertex 28.938 -39.639 5
      vertex 2.22 -20.8 5
      vertex 25.811 -41.745 5
    endloop
  endfacet
  facet normal 0 0 1
    outer loop
      vertex 25.811 -41.745 5
      vertex 2.22 -20.8 5
      vertex 22.533 -43.6 5
    endloop
  endfacet
  facet normal 0 0 1
    outer loop
      vertex 22.533 -43.6 5
      vertex 2.22 -20.8 5
      vertex 19.113 -45.2 5
    endloop
  endfacet
  facet normal 0 0 1
    outer loop
      vertex 19.113 -45.2 5
      vertex 2.22 -20.8 5
      vertex 15.561 -46.541 5
    endloop
  endfacet
  facet normal 0 0 1
    outer loop
      vertex 15.561 -46.541 5
      vertex 2.22 -20.8 5
      vertex 11.887 -47.616 5
    endloop
  endfacet
  facet normal 0 0 1
    outer loop
      vertex 11.887 -47.616 5
      vertex 2.22 -20.8 5
      vertex 8.1 -48.42 5
    endloop
  endfacet
  facet normal 0 0 1
    outer loop
      vertex 8.1 -48.42 5
      vertex 2.22 -20.8 5
      vertex 5.149 -48.758 5
    endloop
  endfacet
  facet normal 0 0 1
    outer loop
      vertex 2.22 -20.8 5
      vertex 1.368 -48.95 5
      vertex 5.149 -48.758 5
    endloop
  endfacet
  facet normal 0 0 1
    outer loop
      vertex 2.22 -20.8 5
      vertex -2.433 -48.977 5
      vertex 1.368 -48.95 5
    endloop
  endfacet
  facet normal 0 0 1
    outer loop
      vertex 2.22 -20.8 5
      vertex -5.44 -48.82 5
      vertex -2.433 -48.977 5
    endloop
  endfacet
  facet normal -0 0 1
    outer loop
      vertex -15.273 -42.413 5
      vertex -5.44 -48.82 5
      vertex 2.22 -20.8 5
    endloop
  endfacet
  facet normal 0 0 1
    outer loop
      vertex -5.44 -48.82 5
      vertex -15.273 -42.413 5
      vertex -8.714 -48.305 5
    endloop
  endfacet
  facet normal 0 0 1
    outer loop
      vertex -8.714 -48.305 5
      vertex -15.273 -42.413 5
      vertex -12.3 -47.535 5
    endloop
  endfacet
  facet normal 0 0 1
    outer loop
      vertex -15.273 -42.413 5
      vertex -15.481 -46.683 5
      vertex -12.3 -47.535 5
    endloop
  endfacet
  facet normal 0 0 1
    outer loop
      vertex -15.273 -42.413 5
      vertex -16.695 -46.279 5
      vertex -15.481 -46.683 5
    endloop
  endfacet
  facet normal -0 0 1
    outer loop
      vertex -17.437 -45.322 5
      vertex -16.695 -46.279 5
      vertex -15.273 -42.413 5
    endloop
  endfacet
  facet normal 0 0 1
    outer loop
      vertex -17.437 -45.322 5
      vertex -17.54 -45.92 5
      vertex -16.695 -46.279 5
    endloop
  endfacet
  facet normal 0 -0 1
    outer loop
      vertex -17.54 -45.92 5
      vertex -17.437 -45.322 5
      vertex -17.637 -45.772 5
    endloop
  endfacet
  facet normal 0.888686 -0.458516 0
    outer loop
      vertex -44.2 21.9 8
      vertex -43.278 23.687 5
      vertex -43.278 23.687 8
    endloop
  endfacet
  facet normal 0.888686 -0.458516 0
    outer loop
      vertex -43.278 23.687 5
      vertex -44.2 21.9 8
      vertex -44.2 21.9 5
    endloop
  endfacet
  facet normal 0.000305176 -1 0
    outer loop
      vertex -2.897 49.167 5
      vertex 0.377999 49.168 8
      vertex -2.897 49.167 8
    endloop
  endfacet
  facet normal 0.000305176 -1 0
    outer loop
      vertex 0.377999 49.168 8
      vertex -2.897 49.167 5
      vertex 0.377999 49.168 5
    endloop
  endfacet
  facet normal 0.912537 -0.408995 0
    outer loop
      vertex -45.753 18.435 8
      vertex -44.2 21.9 5
      vertex -44.2 21.9 8
    endloop
  endfacet
  facet normal 0.912537 -0.408995 0
    outer loop
      vertex -44.2 21.9 5
      vertex -45.753 18.435 8
      vertex -45.753 18.435 5
    endloop
  endfacet
  facet normal 0.137951 -0.990439 0
    outer loop
      vertex -7.498 48.726 5
      vertex -5.1 49.06 8
      vertex -7.498 48.726 8
    endloop
  endfacet
  facet normal 0.137951 -0.990439 0
    outer loop
      vertex -5.1 49.06 8
      vertex -7.498 48.726 5
      vertex -5.1 49.06 5
    endloop
  endfacet
  facet normal 0.836374 0.548159 0
    outer loop
      vertex -17.54 -45.92 8
      vertex -17.637 -45.772 5
      vertex -17.637 -45.772 8
    endloop
  endfacet
  facet normal 0.836374 0.548159 0
    outer loop
      vertex -17.637 -45.772 5
      vertex -17.54 -45.92 8
      vertex -17.54 -45.92 5
    endloop
  endfacet
  facet normal 0.172561 -0.984999 0
    outer loop
      vertex -9.747 48.332 5
      vertex -7.498 48.726 8
      vertex -9.747 48.332 8
    endloop
  endfacet
  facet normal 0.172561 -0.984999 0
    outer loop
      vertex -7.498 48.726 8
      vertex -9.747 48.332 5
      vertex -7.498 48.726 5
    endloop
  endfacet
  facet normal 0.93996 -0.341285 0
    outer loop
      vertex -47.01 14.973 8
      vertex -45.753 18.435 5
      vertex -45.753 18.435 8
    endloop
  endfacet
  facet normal 0.93996 -0.341285 0
    outer loop
      vertex -45.753 18.435 5
      vertex -47.01 14.973 8
      vertex -47.01 14.973 5
    endloop
  endfacet
  facet normal 0.391026 0.92038 -0
    outer loop
      vertex -16.695 -46.279 5
      vertex -17.54 -45.92 8
      vertex -16.695 -46.279 8
    endloop
  endfacet
  facet normal 0.391026 0.92038 0
    outer loop
      vertex -17.54 -45.92 8
      vertex -16.695 -46.279 5
      vertex -17.54 -45.92 5
    endloop
  endfacet
  facet normal 0.212126 -0.977242 0
    outer loop
      vertex -11.88 47.869 5
      vertex -9.747 48.332 8
      vertex -11.88 47.869 8
    endloop
  endfacet
  facet normal 0.212126 -0.977242 0
    outer loop
      vertex -9.747 48.332 8
      vertex -11.88 47.869 5
      vertex -9.747 48.332 5
    endloop
  endfacet
  facet normal -0.843792 0.536671 0
    outer loop
      vertex -24.82 -42.36 5
      vertex -21.589 -37.28 8
      vertex -21.589 -37.28 5
    endloop
  endfacet
  facet normal -0.843792 0.536671 0
    outer loop
      vertex -21.589 -37.28 8
      vertex -24.82 -42.36 5
      vertex -24.82 -42.36 8
    endloop
  endfacet
  facet normal 0.2554 -0.966836 0
    outer loop
      vertex -13.928 47.328 5
      vertex -11.88 47.869 8
      vertex -13.928 47.328 8
    endloop
  endfacet
  facet normal 0.2554 -0.966836 0
    outer loop
      vertex -11.88 47.869 8
      vertex -13.928 47.328 5
      vertex -11.88 47.869 5
    endloop
  endfacet
  facet normal 0.300833 -0.953677 0
    outer loop
      vertex -15.922 46.699 5
      vertex -13.928 47.328 8
      vertex -15.922 46.699 8
    endloop
  endfacet
  facet normal 0.300833 -0.953677 0
    outer loop
      vertex -13.928 47.328 8
      vertex -15.922 46.699 5
      vertex -13.928 47.328 5
    endloop
  endfacet
  facet normal 0.802344 -0.596862 0
    outer loop
      vertex -17.437 -45.322 8
      vertex -15.273 -42.413 5
      vertex -15.273 -42.413 8
    endloop
  endfacet
  facet normal 0.802344 -0.596862 0
    outer loop
      vertex -15.273 -42.413 5
      vertex -17.437 -45.322 8
      vertex -17.437 -45.322 5
    endloop
  endfacet
  facet normal 0.913813 -0.406136 0
    outer loop
      vertex -17.637 -45.772 8
      vertex -17.437 -45.322 5
      vertex -17.437 -45.322 8
    endloop
  endfacet
  facet normal 0.913813 -0.406136 0
    outer loop
      vertex -17.437 -45.322 5
      vertex -17.637 -45.772 8
      vertex -17.637 -45.772 5
    endloop
  endfacet
  facet normal 0.963455 -0.267869 0
    outer loop
      vertex -47.997 11.423 8
      vertex -47.01 14.973 5
      vertex -47.01 14.973 8
    endloop
  endfacet
  facet normal 0.963455 -0.267869 0
    outer loop
      vertex -47.01 14.973 5
      vertex -47.997 11.423 8
      vertex -47.997 11.423 5
    endloop
  endfacet
  facet normal 0.0485122 -0.998823 0
    outer loop
      vertex -5.1 49.06 5
      vertex -2.897 49.167 8
      vertex -5.1 49.06 8
    endloop
  endfacet
  facet normal 0.0485122 -0.998823 0
    outer loop
      vertex -2.897 49.167 8
      vertex -5.1 49.06 5
      vertex -2.897 49.167 5
    endloop
  endfacet
  facet normal 0.980662 -0.195711 0
    outer loop
      vertex -48.74 7.7 8
      vertex -47.997 11.423 5
      vertex -47.997 11.423 8
    endloop
  endfacet
  facet normal 0.980662 -0.195711 0
    outer loop
      vertex -47.997 11.423 5
      vertex -48.74 7.7 8
      vertex -48.74 7.7 5
    endloop
  endfacet
  facet normal 0.315758 0.94884 -0
    outer loop
      vertex -15.481 -46.683 5
      vertex -16.695 -46.279 8
      vertex -15.481 -46.683 8
    endloop
  endfacet
  facet normal 0.315758 0.94884 0
    outer loop
      vertex -16.695 -46.279 8
      vertex -15.481 -46.683 5
      vertex -16.695 -46.279 5
    endloop
  endfacet
  facet normal 0.992871 -0.119196 0
    outer loop
      vertex -48.922 6.184 8
      vertex -48.74 7.7 5
      vertex -48.74 7.7 8
    endloop
  endfacet
  facet normal 0.992871 -0.119196 0
    outer loop
      vertex -48.74 7.7 5
      vertex -48.922 6.184 8
      vertex -48.922 6.184 5
    endloop
  endfacet
  facet normal 0.344648 -0.938732 0
    outer loop
      vertex -17.894 45.975 5
      vertex -15.922 46.699 8
      vertex -17.894 45.975 8
    endloop
  endfacet
  facet normal 0.344648 -0.938732 0
    outer loop
      vertex -15.922 46.699 8
      vertex -17.894 45.975 5
      vertex -15.922 46.699 5
    endloop
  endfacet
  facet normal 0.386266 -0.922387 0
    outer loop
      vertex -19.876 45.145 5
      vertex -17.894 45.975 8
      vertex -19.876 45.145 8
    endloop
  endfacet
  facet normal 0.386266 -0.922387 0
    outer loop
      vertex -17.894 45.975 8
      vertex -19.876 45.145 5
      vertex -17.894 45.975 5
    endloop
  endfacet
  facet normal -0.353201 0.935548 0
    outer loop
      vertex 19.113 -45.2 5
      vertex 15.561 -46.541 8
      vertex 19.113 -45.2 8
    endloop
  endfacet
  facet normal -0.353201 0.935548 0
    outer loop
      vertex 15.561 -46.541 8
      vertex 19.113 -45.2 5
      vertex 15.561 -46.541 5
    endloop
  endfacet
  facet normal 0.997806 -0.0662048 0
    outer loop
      vertex -49.048 4.285 8
      vertex -48.922 6.184 5
      vertex -48.922 6.184 8
    endloop
  endfacet
  facet normal 0.997806 -0.0662048 0
    outer loop
      vertex -48.922 6.184 5
      vertex -49.048 4.285 8
      vertex -49.048 4.285 5
    endloop
  endfacet
  facet normal 0.423057 -0.906103 0
    outer loop
      vertex -21.9 44.2 5
      vertex -19.876 45.145 8
      vertex -21.9 44.2 8
    endloop
  endfacet
  facet normal 0.423057 -0.906103 0
    outer loop
      vertex -19.876 45.145 8
      vertex -21.9 44.2 5
      vertex -19.876 45.145 5
    endloop
  endfacet
  facet normal -0.423756 0.905777 0
    outer loop
      vertex 22.533 -43.6 5
      vertex 19.113 -45.2 8
      vertex 22.533 -43.6 8
    endloop
  endfacet
  facet normal -0.423756 0.905777 0
    outer loop
      vertex 19.113 -45.2 8
      vertex 22.533 -43.6 5
      vertex 19.113 -45.2 5
    endloop
  endfacet
  facet normal 0.748702 -0.662907 0
    outer loop
      vertex -37.612 31.948 8
      vertex -36.283 33.449 5
      vertex -36.283 33.449 8
    endloop
  endfacet
  facet normal 0.748702 -0.662907 0
    outer loop
      vertex -36.283 33.449 5
      vertex -37.612 31.948 8
      vertex -37.612 31.948 5
    endloop
  endfacet
  facet normal 0.458516 -0.888686 0
    outer loop
      vertex -23.687 43.278 5
      vertex -21.9 44.2 8
      vertex -23.687 43.278 8
    endloop
  endfacet
  facet normal 0.458516 -0.888686 0
    outer loop
      vertex -21.9 44.2 8
      vertex -23.687 43.278 5
      vertex -21.9 44.2 5
    endloop
  endfacet
  facet normal -0.858833 0.512256 0
    outer loop
      vertex -7.785 -14.834 5
      vertex -4.52 -9.36 8
      vertex -4.52 -9.36 5
    endloop
  endfacet
  facet normal -0.858833 0.512256 0
    outer loop
      vertex -4.52 -9.36 8
      vertex -7.785 -14.834 5
      vertex -7.785 -14.834 8
    endloop
  endfacet
  facet normal 0.49571 -0.868488 0
    outer loop
      vertex -25.432 42.282 5
      vertex -23.687 43.278 8
      vertex -25.432 42.282 8
    endloop
  endfacet
  facet normal 0.49571 -0.868488 0
    outer loop
      vertex -23.687 43.278 8
      vertex -25.432 42.282 5
      vertex -23.687 43.278 5
    endloop
  endfacet
  facet normal -0.985252 0.171112 0
    outer loop
      vertex -4.52 -9.36 5
      vertex -4.425 -8.813 8
      vertex -4.425 -8.813 5
    endloop
  endfacet
  facet normal -0.985252 0.171112 0
    outer loop
      vertex -4.425 -8.813 8
      vertex -4.52 -9.36 5
      vertex -4.52 -9.36 8
    endloop
  endfacet
  facet normal -0.999926 0.0121409 0
    outer loop
      vertex 48.853 -3.671 5
      vertex 48.9 0.2 8
      vertex 48.9 0.2 5
    endloop
  endfacet
  facet normal -0.999926 0.0121409 0
    outer loop
      vertex 48.9 0.2 8
      vertex 48.853 -3.671 5
      vertex 48.853 -3.671 8
    endloop
  endfacet
  facet normal -0.983928 -0.178564 0
    outer loop
      vertex -4.425 -8.813 5
      vertex -4.523 -8.273 8
      vertex -4.523 -8.273 5
    endloop
  endfacet
  facet normal -0.983928 -0.178564 0
    outer loop
      vertex -4.523 -8.273 8
      vertex -4.425 -8.813 5
      vertex -4.425 -8.813 8
    endloop
  endfacet
  facet normal 0.531386 -0.84713 0
    outer loop
      vertex -27.133 41.215 5
      vertex -25.432 42.282 8
      vertex -27.133 41.215 8
    endloop
  endfacet
  facet normal 0.531386 -0.84713 0
    outer loop
      vertex -25.432 42.282 8
      vertex -27.133 41.215 5
      vertex -25.432 42.282 5
    endloop
  endfacet
  facet normal -0.87505 -0.484033 0
    outer loop
      vertex -4.523 -8.273 5
      vertex -4.804 -7.765 8
      vertex -4.804 -7.765 5
    endloop
  endfacet
  facet normal -0.87505 -0.484033 0
    outer loop
      vertex -4.804 -7.765 8
      vertex -4.523 -8.273 5
      vertex -4.523 -8.273 8
    endloop
  endfacet
  facet normal 0.777343 -0.629077 0
    outer loop
      vertex 2.22 -20.8 8
      vertex 16.578 -3.058 5
      vertex 16.578 -3.058 8
    endloop
  endfacet
  facet normal 0.777343 -0.629077 0
    outer loop
      vertex 16.578 -3.058 5
      vertex 2.22 -20.8 8
      vertex 2.22 -20.8 5
    endloop
  endfacet
  facet normal 0.999808 -0.0196125 0
    outer loop
      vertex -49.135 -0.15 8
      vertex -49.048 4.285 5
      vertex -49.048 4.285 8
    endloop
  endfacet
  facet normal 0.999808 -0.0196125 0
    outer loop
      vertex -49.048 4.285 5
      vertex -49.135 -0.15 8
      vertex -49.135 -0.15 5
    endloop
  endfacet
  facet normal 0.565576 -0.824696 0
    outer loop
      vertex -28.788 40.08 5
      vertex -27.133 41.215 8
      vertex -28.788 40.08 8
    endloop
  endfacet
  facet normal 0.565576 -0.824696 0
    outer loop
      vertex -27.133 41.215 8
      vertex -28.788 40.08 5
      vertex -27.133 41.215 5
    endloop
  endfacet
  facet normal 0.999564 0.0295241 0
    outer loop
      vertex -49.004 -4.585 8
      vertex -49.135 -0.15 5
      vertex -49.135 -0.15 8
    endloop
  endfacet
  facet normal 0.999564 0.0295241 0
    outer loop
      vertex -49.135 -0.15 5
      vertex -49.004 -4.585 8
      vertex -49.004 -4.585 5
    endloop
  endfacet
  facet normal 0.599443 -0.800418 0
    outer loop
      vertex -30.393 38.878 5
      vertex -28.788 40.08 8
      vertex -30.393 38.878 8
    endloop
  endfacet
  facet normal 0.599443 -0.800418 0
    outer loop
      vertex -28.788 40.08 8
      vertex -30.393 38.878 5
      vertex -28.788 40.08 5
    endloop
  endfacet
  facet normal -0.775085 0.631856 0
    outer loop
      vertex 36.932 -32.306 5
      vertex 39.001 -29.768 8
      vertex 39.001 -29.768 5
    endloop
  endfacet
  facet normal -0.775085 0.631856 0
    outer loop
      vertex 39.001 -29.768 8
      vertex 36.932 -32.306 5
      vertex 36.932 -32.306 8
    endloop
  endfacet
  facet normal 0.997098 0.0761346 0
    outer loop
      vertex -48.859 -6.484 8
      vertex -49.004 -4.585 5
      vertex -49.004 -4.585 8
    endloop
  endfacet
  facet normal 0.997098 0.0761346 0
    outer loop
      vertex -49.004 -4.585 5
      vertex -48.859 -6.484 8
      vertex -48.859 -6.484 5
    endloop
  endfacet
  facet normal -0.814888 0.579618 0
    outer loop
      vertex 39.001 -29.768 5
      vertex 40.898 -27.101 8
      vertex 40.898 -27.101 5
    endloop
  endfacet
  facet normal -0.814888 0.579618 0
    outer loop
      vertex 40.898 -27.101 8
      vertex 39.001 -29.768 5
      vertex 39.001 -29.768 8
    endloop
  endfacet
  facet normal 0.631362 -0.775489 0
    outer loop
      vertex -31.948 37.612 5
      vertex -30.393 38.878 8
      vertex -31.948 37.612 8
    endloop
  endfacet
  facet normal 0.631362 -0.775489 0
    outer loop
      vertex -30.393 38.878 8
      vertex -31.948 37.612 5
      vertex -30.393 38.878 5
    endloop
  endfacet
  facet normal 0.991494 0.130151 0
    outer loop
      vertex -48.66 -8 8
      vertex -48.859 -6.484 5
      vertex -48.859 -6.484 8
    endloop
  endfacet
  facet normal 0.991494 0.130151 0
    outer loop
      vertex -48.859 -6.484 5
      vertex -48.66 -8 8
      vertex -48.66 -8 5
    endloop
  endfacet
  facet normal -0.851059 0.52507 0
    outer loop
      vertex 40.898 -27.101 5
      vertex 42.615 -24.318 8
      vertex 42.615 -24.318 5
    endloop
  endfacet
  facet normal -0.851059 0.52507 0
    outer loop
      vertex 42.615 -24.318 8
      vertex 40.898 -27.101 5
      vertex 40.898 -27.101 8
    endloop
  endfacet
  facet normal 0.980343 0.1973 0
    outer loop
      vertex -48.147 -10.549 8
      vertex -48.66 -8 5
      vertex -48.66 -8 8
    endloop
  endfacet
  facet normal 0.980343 0.1973 0
    outer loop
      vertex -48.66 -8 5
      vertex -48.147 -10.549 8
      vertex -48.147 -10.549 5
    endloop
  endfacet
  facet normal 0.662907 -0.748702 0
    outer loop
      vertex -33.449 36.283 5
      vertex -31.948 37.612 8
      vertex -33.449 36.283 8
    endloop
  endfacet
  facet normal 0.662907 -0.748702 0
    outer loop
      vertex -31.948 37.612 8
      vertex -33.449 36.283 5
      vertex -31.948 37.612 5
    endloop
  endfacet
  facet normal -0.727977 -0.685601 0
    outer loop
      vertex 36.647 32.836 5
      vertex 34.932 34.657 8
      vertex 34.932 34.657 5
    endloop
  endfacet
  facet normal -0.727977 -0.685601 0
    outer loop
      vertex 34.932 34.657 8
      vertex 36.647 32.836 5
      vertex 36.647 32.836 8
    endloop
  endfacet
  facet normal -0.883773 0.467916 0
    outer loop
      vertex 42.615 -24.318 5
      vertex 44.143 -21.432 8
      vertex 44.143 -21.432 5
    endloop
  endfacet
  facet normal -0.883773 0.467916 0
    outer loop
      vertex 44.143 -21.432 8
      vertex 42.615 -24.318 5
      vertex 42.615 -24.318 8
    endloop
  endfacet
  facet normal 0.969661 0.244455 0
    outer loop
      vertex -47.518 -13.044 8
      vertex -48.147 -10.549 5
      vertex -48.147 -10.549 8
    endloop
  endfacet
  facet normal 0.969661 0.244455 0
    outer loop
      vertex -48.147 -10.549 5
      vertex -47.518 -13.044 8
      vertex -47.518 -13.044 5
    endloop
  endfacet
  facet normal 0.692491 -0.721427 0
    outer loop
      vertex -34.895 34.895 5
      vertex -33.449 36.283 8
      vertex -34.895 34.895 8
    endloop
  endfacet
  facet normal 0.692491 -0.721427 0
    outer loop
      vertex -33.449 36.283 8
      vertex -34.895 34.895 5
      vertex -33.449 36.283 5
    endloop
  endfacet
  facet normal -0.692043 -0.721856 0
    outer loop
      vertex 33.116 36.398 5
      vertex 34.932 34.657 8
      vertex 33.116 36.398 8
    endloop
  endfacet
  facet normal -0.692043 -0.721856 -0
    outer loop
      vertex 34.932 34.657 8
      vertex 33.116 36.398 5
      vertex 34.932 34.657 5
    endloop
  endfacet
  facet normal 0.721427 -0.692491 0
    outer loop
      vertex -36.283 33.449 8
      vertex -34.895 34.895 5
      vertex -34.895 34.895 8
    endloop
  endfacet
  facet normal 0.721427 -0.692491 0
    outer loop
      vertex -34.895 34.895 5
      vertex -36.283 33.449 8
      vertex -36.283 33.449 5
    endloop
  endfacet
  facet normal -0.912987 0.407989 0
    outer loop
      vertex 44.143 -21.432 5
      vertex 45.472 -18.458 8
      vertex 45.472 -18.458 5
    endloop
  endfacet
  facet normal -0.912987 0.407989 0
    outer loop
      vertex 45.472 -18.458 8
      vertex 44.143 -21.432 5
      vertex 44.143 -21.432 8
    endloop
  endfacet
  facet normal 0.956421 0.29199 0
    outer loop
      vertex -46.774 -15.481 8
      vertex -47.518 -13.044 5
      vertex -47.518 -13.044 8
    endloop
  endfacet
  facet normal 0.956421 0.29199 0
    outer loop
      vertex -47.518 -13.044 5
      vertex -46.774 -15.481 8
      vertex -46.774 -15.481 5
    endloop
  endfacet
  facet normal -0.938474 0.345349 0
    outer loop
      vertex 45.472 -18.458 5
      vertex 46.594 -15.409 8
      vertex 46.594 -15.409 5
    endloop
  endfacet
  facet normal -0.938474 0.345349 0
    outer loop
      vertex 46.594 -15.409 8
      vertex 45.472 -18.458 5
      vertex 45.472 -18.458 8
    endloop
  endfacet
  facet normal 0.850343 -0.52623 0
    outer loop
      vertex 14.5 26.36 8
      vertex 21.6 37.833 5
      vertex 21.6 37.833 8
    endloop
  endfacet
  facet normal 0.850343 -0.52623 0
    outer loop
      vertex 21.6 37.833 5
      vertex 14.5 26.36 8
      vertex 14.5 26.36 5
    endloop
  endfacet
  facet normal 0.940473 0.339867 0
    outer loop
      vertex -45.915 -17.858 8
      vertex -46.774 -15.481 5
      vertex -46.774 -15.481 8
    endloop
  endfacet
  facet normal 0.940473 0.339867 0
    outer loop
      vertex -46.774 -15.481 5
      vertex -45.915 -17.858 8
      vertex -45.915 -17.858 5
    endloop
  endfacet
  facet normal -0.777357 0.62906 0
    outer loop
      vertex -2.58 20.8 5
      vertex 15.045 42.58 8
      vertex 15.045 42.58 5
    endloop
  endfacet
  facet normal -0.777357 0.62906 0
    outer loop
      vertex 15.045 42.58 8
      vertex -2.58 20.8 5
      vertex -2.58 20.8 8
    endloop
  endfacet
  facet normal -0.65478 -0.755819 0
    outer loop
      vertex 31.201 38.057 5
      vertex 33.116 36.398 8
      vertex 31.201 38.057 8
    endloop
  endfacet
  facet normal -0.65478 -0.755819 -0
    outer loop
      vertex 33.116 36.398 8
      vertex 31.201 38.057 5
      vertex 33.116 36.398 5
    endloop
  endfacet
  facet normal -0.960066 0.279774 0
    outer loop
      vertex 46.594 -15.409 5
      vertex 47.5 -12.3 8
      vertex 47.5 -12.3 5
    endloop
  endfacet
  facet normal -0.960066 0.279774 0
    outer loop
      vertex 47.5 -12.3 8
      vertex 46.594 -15.409 5
      vertex 46.594 -15.409 8
    endloop
  endfacet
  facet normal -0.777176 0.629284 0
    outer loop
      vertex -17.013 2.975 5
      vertex -2.58 20.8 8
      vertex -2.58 20.8 5
    endloop
  endfacet
  facet normal -0.777176 0.629284 0
    outer loop
      vertex -2.58 20.8 8
      vertex -17.013 2.975 5
      vertex -17.013 2.975 8
    endloop
  endfacet
  facet normal 0.922309 0.386454 0
    outer loop
      vertex -44.945 -20.173 8
      vertex -45.915 -17.858 5
      vertex -45.915 -17.858 8
    endloop
  endfacet
  facet normal 0.922309 0.386454 0
    outer loop
      vertex -45.915 -17.858 5
      vertex -44.945 -20.173 8
      vertex -44.945 -20.173 5
    endloop
  endfacet
  facet normal -0.616403 -0.787431 0
    outer loop
      vertex 29.189 39.632 5
      vertex 31.201 38.057 8
      vertex 29.189 39.632 8
    endloop
  endfacet
  facet normal -0.616403 -0.787431 -0
    outer loop
      vertex 31.201 38.057 8
      vertex 29.189 39.632 5
      vertex 31.201 38.057 5
    endloop
  endfacet
  facet normal -0.972897 0.231237 0
    outer loop
      vertex 47.5 -12.3 5
      vertex 48.233 -9.216 8
      vertex 48.233 -9.216 5
    endloop
  endfacet
  facet normal -0.972897 0.231237 0
    outer loop
      vertex 48.233 -9.216 8
      vertex 47.5 -12.3 5
      vertex 47.5 -12.3 8
    endloop
  endfacet
  facet normal -0.996201 -0.08708 0
    outer loop
      vertex 48.823 5.175 5
      vertex 48.689 6.708 8
      vertex 48.689 6.708 5
    endloop
  endfacet
  facet normal -0.996201 -0.08708 0
    outer loop
      vertex 48.689 6.708 8
      vertex 48.823 5.175 5
      vertex 48.823 5.175 8
    endloop
  endfacet
  facet normal 0.90136 0.43307 0
    outer loop
      vertex -43.863 -22.425 8
      vertex -44.945 -20.173 5
      vertex -44.945 -20.173 8
    endloop
  endfacet
  facet normal 0.90136 0.43307 0
    outer loop
      vertex -44.945 -20.173 5
      vertex -43.863 -22.425 8
      vertex -43.863 -22.425 5
    endloop
  endfacet
  facet normal -0.576501 -0.817097 0
    outer loop
      vertex 27.08 41.12 5
      vertex 29.189 39.632 8
      vertex 27.08 41.12 8
    endloop
  endfacet
  facet normal -0.576501 -0.817097 -0
    outer loop
      vertex 29.189 39.632 8
      vertex 27.08 41.12 5
      vertex 29.189 39.632 5
    endloop
  endfacet
  facet normal -0.987298 0.15888 0
    outer loop
      vertex 48.233 -9.216 5
      vertex 48.658 -6.575 8
      vertex 48.658 -6.575 5
    endloop
  endfacet
  facet normal -0.987298 0.15888 0
    outer loop
      vertex 48.658 -6.575 8
      vertex 48.233 -9.216 5
      vertex 48.233 -9.216 8
    endloop
  endfacet
  facet normal -0.988425 -0.151709 0
    outer loop
      vertex 48.689 6.708 5
      vertex 48.46 8.2 8
      vertex 48.46 8.2 5
    endloop
  endfacet
  facet normal -0.988425 -0.151709 0
    outer loop
      vertex 48.46 8.2 8
      vertex 48.689 6.708 5
      vertex 48.689 6.708 8
    endloop
  endfacet
  facet normal -0.543165 -0.839626 0
    outer loop
      vertex 25.46 42.168 5
      vertex 27.08 41.12 8
      vertex 25.46 42.168 8
    endloop
  endfacet
  facet normal -0.543165 -0.839626 -0
    outer loop
      vertex 27.08 41.12 8
      vertex 25.46 42.168 5
      vertex 27.08 41.12 5
    endloop
  endfacet
  facet normal 0.878034 0.478598 0
    outer loop
      vertex -42.672 -24.61 8
      vertex -43.863 -22.425 5
      vertex -43.863 -22.425 8
    endloop
  endfacet
  facet normal 0.878034 0.478598 0
    outer loop
      vertex -43.863 -22.425 5
      vertex -42.672 -24.61 8
      vertex -42.672 -24.61 5
    endloop
  endfacet
  facet normal 0.775489 -0.631362 0
    outer loop
      vertex -38.878 30.393 8
      vertex -37.612 31.948 5
      vertex -37.612 31.948 8
    endloop
  endfacet
  facet normal 0.775489 -0.631362 0
    outer loop
      vertex -37.612 31.948 5
      vertex -38.878 30.393 8
      vertex -38.878 30.393 5
    endloop
  endfacet
  facet normal -0.997753 0.0669978 0
    outer loop
      vertex 48.658 -6.575 5
      vertex 48.853 -3.671 8
      vertex 48.853 -3.671 5
    endloop
  endfacet
  facet normal -0.997753 0.0669978 0
    outer loop
      vertex 48.853 -3.671 8
      vertex 48.658 -6.575 5
      vertex 48.658 -6.575 8
    endloop
  endfacet
  facet normal -0.980298 -0.197523 0
    outer loop
      vertex 48.46 8.2 5
      vertex 47.947 10.746 8
      vertex 47.947 10.746 5
    endloop
  endfacet
  facet normal -0.980298 -0.197523 0
    outer loop
      vertex 47.947 10.746 8
      vertex 48.46 8.2 5
      vertex 48.46 8.2 8
    endloop
  endfacet
  facet normal -0.4845 -0.874791 0
    outer loop
      vertex 24.68 42.6 5
      vertex 25.46 42.168 8
      vertex 24.68 42.6 8
    endloop
  endfacet
  facet normal -0.4845 -0.874791 -0
    outer loop
      vertex 25.46 42.168 8
      vertex 24.68 42.6 5
      vertex 25.46 42.168 5
    endloop
  endfacet
  facet normal -0.969591 -0.244731 0
    outer loop
      vertex 47.947 10.746 5
      vertex 47.318 13.238 8
      vertex 47.318 13.238 5
    endloop
  endfacet
  facet normal -0.969591 -0.244731 0
    outer loop
      vertex 47.318 13.238 8
      vertex 47.947 10.746 5
      vertex 47.947 10.746 8
    endloop
  endfacet
  facet normal 0.839934 -0.542689 0
    outer loop
      vertex 21.6 37.833 8
      vertex 24.68 42.6 5
      vertex 24.68 42.6 8
    endloop
  endfacet
  facet normal 0.839934 -0.542689 0
    outer loop
      vertex 24.68 42.6 5
      vertex 21.6 37.833 8
      vertex 21.6 37.833 5
    endloop
  endfacet
  facet normal -0.956355 -0.292208 0
    outer loop
      vertex 47.318 13.238 5
      vertex 46.574 15.673 8
      vertex 46.574 15.673 5
    endloop
  endfacet
  facet normal -0.956355 -0.292208 0
    outer loop
      vertex 46.574 15.673 8
      vertex 47.318 13.238 5
      vertex 47.318 13.238 8
    endloop
  endfacet
  facet normal -0.492503 0.870311 0
    outer loop
      vertex 25.811 -41.745 5
      vertex 22.533 -43.6 8
      vertex 25.811 -41.745 8
    endloop
  endfacet
  facet normal -0.492503 0.870311 0
    outer loop
      vertex 22.533 -43.6 8
      vertex 25.811 -41.745 5
      vertex 22.533 -43.6 5
    endloop
  endfacet
  facet normal 0.852445 0.522817 0
    outer loop
      vertex -41.373 -26.728 8
      vertex -42.672 -24.61 5
      vertex -42.672 -24.61 8
    endloop
  endfacet
  facet normal 0.852445 0.522817 0
    outer loop
      vertex -42.672 -24.61 5
      vertex -41.373 -26.728 8
      vertex -41.373 -26.728 5
    endloop
  endfacet
  facet normal -0.940554 -0.339645 0
    outer loop
      vertex 46.574 15.673 5
      vertex 45.716 18.049 8
      vertex 45.716 18.049 5
    endloop
  endfacet
  facet normal -0.940554 -0.339645 0
    outer loop
      vertex 45.716 18.049 8
      vertex 46.574 15.673 5
      vertex 46.574 15.673 8
    endloop
  endfacet
  facet normal -0.558612 0.829429 0
    outer loop
      vertex 28.938 -39.639 5
      vertex 25.811 -41.745 8
      vertex 28.938 -39.639 8
    endloop
  endfacet
  facet normal -0.558612 0.829429 0
    outer loop
      vertex 25.811 -41.745 8
      vertex 28.938 -39.639 5
      vertex 25.811 -41.745 5
    endloop
  endfacet
  facet normal 0.800418 -0.599443 0
    outer loop
      vertex -40.08 28.788 8
      vertex -38.878 30.393 5
      vertex -38.878 30.393 8
    endloop
  endfacet
  facet normal 0.800418 -0.599443 0
    outer loop
      vertex -38.878 30.393 5
      vertex -40.08 28.788 8
      vertex -40.08 28.788 5
    endloop
  endfacet
  facet normal 0.824159 0.566359 0
    outer loop
      vertex -39.967 -28.774 8
      vertex -41.373 -26.728 5
      vertex -41.373 -26.728 8
    endloop
  endfacet
  facet normal 0.824159 0.566359 0
    outer loop
      vertex -41.373 -26.728 5
      vertex -39.967 -28.774 8
      vertex -39.967 -28.774 5
    endloop
  endfacet
  facet normal -0.922167 -0.386792 0
    outer loop
      vertex 45.716 18.049 5
      vertex 44.745 20.364 8
      vertex 44.745 20.364 5
    endloop
  endfacet
  facet normal -0.922167 -0.386792 0
    outer loop
      vertex 44.745 20.364 8
      vertex 45.716 18.049 5
      vertex 45.716 18.049 8
    endloop
  endfacet
  facet normal -0.621014 0.783799 0
    outer loop
      vertex 31.904 -37.289 5
      vertex 28.938 -39.639 8
      vertex 31.904 -37.289 8
    endloop
  endfacet
  facet normal -0.621014 0.783799 0
    outer loop
      vertex 28.938 -39.639 8
      vertex 31.904 -37.289 5
      vertex 28.938 -39.639 5
    endloop
  endfacet
  facet normal -0.911396 0.411531 0
    outer loop
      vertex 17.231 45.516 5
      vertex 17.436 45.97 8
      vertex 17.436 45.97 5
    endloop
  endfacet
  facet normal -0.911396 0.411531 0
    outer loop
      vertex 17.436 45.97 8
      vertex 17.231 45.516 5
      vertex 17.231 45.516 8
    endloop
  endfacet
  facet normal 0.794073 0.607823 0
    outer loop
      vertex -38.456 -30.748 8
      vertex -39.967 -28.774 5
      vertex -39.967 -28.774 8
    endloop
  endfacet
  facet normal 0.794073 0.607823 0
    outer loop
      vertex -39.967 -28.774 5
      vertex -38.456 -30.748 8
      vertex -38.456 -30.748 5
    endloop
  endfacet
  facet normal -0.842266 -0.539062 0
    outer loop
      vertex 17.436 45.97 5
      vertex 17.34 46.12 8
      vertex 17.34 46.12 5
    endloop
  endfacet
  facet normal -0.842266 -0.539062 0
    outer loop
      vertex 17.34 46.12 8
      vertex 17.436 45.97 5
      vertex 17.436 45.97 8
    endloop
  endfacet
  facet normal -0.679424 0.733746 0
    outer loop
      vertex 34.7 -34.7 5
      vertex 31.904 -37.289 8
      vertex 34.7 -34.7 8
    endloop
  endfacet
  facet normal -0.679424 0.733746 0
    outer loop
      vertex 31.904 -37.289 8
      vertex 34.7 -34.7 5
      vertex 31.904 -37.289 5
    endloop
  endfacet
  facet normal 0.761771 0.647847 0
    outer loop
      vertex -36.841 -32.647 8
      vertex -38.456 -30.748 5
      vertex -38.456 -30.748 8
    endloop
  endfacet
  facet normal 0.761771 0.647847 0
    outer loop
      vertex -38.456 -30.748 5
      vertex -36.841 -32.647 8
      vertex -36.841 -32.647 5
    endloop
  endfacet
  facet normal -0.401749 -0.91575 0
    outer loop
      vertex 16.565 46.46 5
      vertex 17.34 46.12 8
      vertex 16.565 46.46 8
    endloop
  endfacet
  facet normal -0.401749 -0.91575 -0
    outer loop
      vertex 17.34 46.12 8
      vertex 16.565 46.46 5
      vertex 17.34 46.12 5
    endloop
  endfacet
  facet normal 0 0 1
    outer loop
      vertex 17.34 46.12 5
      vertex 17.231 45.516 5
      vertex 17.436 45.97 5
    endloop
  endfacet
  facet normal 0 0 1
    outer loop
      vertex 16.565 46.46 5
      vertex 17.231 45.516 5
      vertex 17.34 46.12 5
    endloop
  endfacet
  facet normal 0 0 1
    outer loop
      vertex 15.461 46.838 5
      vertex 17.231 45.516 5
      vertex 16.565 46.46 5
    endloop
  endfacet
  facet normal 0 0 1
    outer loop
      vertex 15.461 46.838 5
      vertex 15.045 42.58 5
      vertex 17.231 45.516 5
    endloop
  endfacet
  facet normal 0 0 1
    outer loop
      vertex 12.565 47.638 5
      vertex 15.045 42.58 5
      vertex 15.461 46.838 5
    endloop
  endfacet
  facet normal 0 0 1
    outer loop
      vertex 9.257 48.373 5
      vertex 15.045 42.58 5
      vertex 12.565 47.638 5
    endloop
  endfacet
  facet normal 0 0 1
    outer loop
      vertex 6.14 48.9 5
      vertex 15.045 42.58 5
      vertex 9.257 48.373 5
    endloop
  endfacet
  facet normal 0 0 1
    outer loop
      vertex 3.723 49.074 5
      vertex 15.045 42.58 5
      vertex 6.14 48.9 5
    endloop
  endfacet
  facet normal 0 0 1
    outer loop
      vertex -2.58 20.8 5
      vertex 3.723 49.074 5
      vertex 0.377999 49.168 5
    endloop
  endfacet
  facet normal 0 0 1
    outer loop
      vertex 3.723 49.074 5
      vertex -2.58 20.8 5
      vertex 15.045 42.58 5
    endloop
  endfacet
  facet normal -0 0 1
    outer loop
      vertex -2.897 49.167 5
      vertex -2.58 20.8 5
      vertex 0.377999 49.168 5
    endloop
  endfacet
  facet normal -0 0 1
    outer loop
      vertex -5.1 49.06 5
      vertex -2.58 20.8 5
      vertex -2.897 49.167 5
    endloop
  endfacet
  facet normal -0 0 1
    outer loop
      vertex -7.498 48.726 5
      vertex -2.58 20.8 5
      vertex -5.1 49.06 5
    endloop
  endfacet
  facet normal -0 0 1
    outer loop
      vertex -9.747 48.332 5
      vertex -2.58 20.8 5
      vertex -7.498 48.726 5
    endloop
  endfacet
  facet normal -0 0 1
    outer loop
      vertex -11.88 47.869 5
      vertex -2.58 20.8 5
      vertex -9.747 48.332 5
    endloop
  endfacet
  facet normal -0 0 1
    outer loop
      vertex -13.928 47.328 5
      vertex -2.58 20.8 5
      vertex -11.88 47.869 5
    endloop
  endfacet
  facet normal -0 0 1
    outer loop
      vertex -15.922 46.699 5
      vertex -2.58 20.8 5
      vertex -13.928 47.328 5
    endloop
  endfacet
  facet normal -0 0 1
    outer loop
      vertex -17.894 45.975 5
      vertex -2.58 20.8 5
      vertex -15.922 46.699 5
    endloop
  endfacet
  facet normal -0 0 1
    outer loop
      vertex -19.876 45.145 5
      vertex -2.58 20.8 5
      vertex -17.894 45.975 5
    endloop
  endfacet
  facet normal -0 0 1
    outer loop
      vertex -21.9 44.2 5
      vertex -2.58 20.8 5
      vertex -19.876 45.145 5
    endloop
  endfacet
  facet normal -0 0 1
    outer loop
      vertex -23.687 43.278 5
      vertex -2.58 20.8 5
      vertex -21.9 44.2 5
    endloop
  endfacet
  facet normal -0 0 1
    outer loop
      vertex -25.432 42.282 5
      vertex -2.58 20.8 5
      vertex -23.687 43.278 5
    endloop
  endfacet
  facet normal -0 0 1
    outer loop
      vertex -27.133 41.215 5
      vertex -2.58 20.8 5
      vertex -25.432 42.282 5
    endloop
  endfacet
  facet normal 0 0 1
    outer loop
      vertex -4.523 -8.273 5
      vertex -4.52 -9.36 5
      vertex -4.425 -8.813 5
    endloop
  endfacet
  facet normal 0 0 1
    outer loop
      vertex -4.804 -7.765 5
      vertex -4.52 -9.36 5
      vertex -4.523 -8.273 5
    endloop
  endfacet
  facet normal 0 0 1
    outer loop
      vertex -5.26 -7.32 5
      vertex -4.52 -9.36 5
      vertex -4.804 -7.765 5
    endloop
  endfacet
  facet normal 0 0 1
    outer loop
      vertex -5.737 -7.084 5
      vertex -4.52 -9.36 5
      vertex -5.26 -7.32 5
    endloop
  endfacet
  facet normal 0 0 1
    outer loop
      vertex -6.828 -6.948 5
      vertex -4.52 -9.36 5
      vertex -5.737 -7.084 5
    endloop
  endfacet
  facet normal 0 0 1
    outer loop
      vertex -6.828 -6.948 5
      vertex -7.785 -14.834 5
      vertex -4.52 -9.36 5
    endloop
  endfacet
  facet normal 0 0 1
    outer loop
      vertex -13.66 -6.8 5
      vertex -7.785 -14.834 5
      vertex -6.828 -6.948 5
    endloop
  endfacet
  facet normal 0 0 1
    outer loop
      vertex -18.591 -6.708 5
      vertex -7.785 -14.834 5
      vertex -13.66 -6.8 5
    endloop
  endfacet
  facet normal 0 0 1
    outer loop
      vertex -7.785 -14.834 5
      vertex -18.591 -6.708 5
      vertex -14.693 -26.123 5
    endloop
  endfacet
  facet normal 0 0 1
    outer loop
      vertex -21.248 -6.548 5
      vertex -14.693 -26.123 5
      vertex -18.591 -6.708 5
    endloop
  endfacet
  facet normal 0 0 1
    outer loop
      vertex -21.968 -6.41 5
      vertex -14.693 -26.123 5
      vertex -21.248 -6.548 5
    endloop
  endfacet
  facet normal 0 0 1
    outer loop
      vertex -39.967 -28.774 5
      vertex -14.693 -26.123 5
      vertex -21.968 -6.41 5
    endloop
  endfacet
  facet normal 0 0 1
    outer loop
      vertex -39.967 -28.774 5
      vertex -21.968 -6.41 5
      vertex -22.415 -6.218 5
    endloop
  endfacet
  facet normal 0 0 1
    outer loop
      vertex -43.863 -22.425 5
      vertex -22.415 -6.218 5
      vertex -22.686 -5.959 5
    endloop
  endfacet
  facet normal 0 0 1
    outer loop
      vertex -45.915 -17.858 5
      vertex -22.686 -5.959 5
      vertex -22.88 -5.62 5
    endloop
  endfacet
  facet normal 0 0 1
    outer loop
      vertex -47.518 -13.044 5
      vertex -22.88 -5.62 5
      vertex -23.03 -5.128 5
    endloop
  endfacet
  facet normal 0 0 1
    outer loop
      vertex -48.66 -8 5
      vertex -23.03 -5.128 5
      vertex -23.06 -4.68 5
    endloop
  endfacet
  facet normal 0 -0 1
    outer loop
      vertex -35.123 -34.468 5
      vertex -14.693 -26.123 5
      vertex -36.841 -32.647 5
    endloop
  endfacet
  facet normal -0 0 1
    outer loop
      vertex -28.788 40.08 5
      vertex -2.58 20.8 5
      vertex -27.133 41.215 5
    endloop
  endfacet
  facet normal -0 0 1
    outer loop
      vertex -30.393 38.878 5
      vertex -2.58 20.8 5
      vertex -28.788 40.08 5
    endloop
  endfacet
  facet normal -0 0 1
    outer loop
      vertex -31.948 37.612 5
      vertex -2.58 20.8 5
      vertex -30.393 38.878 5
    endloop
  endfacet
  facet normal -0 0 1
    outer loop
      vertex -33.449 36.283 5
      vertex -2.58 20.8 5
      vertex -31.948 37.612 5
    endloop
  endfacet
  facet normal 0 0 1
    outer loop
      vertex -21.589 -37.28 5
      vertex -25.613 -41.973 5
      vertex -24.82 -42.36 5
    endloop
  endfacet
  facet normal -0 0 1
    outer loop
      vertex -34.895 34.895 5
      vertex -2.58 20.8 5
      vertex -33.449 36.283 5
    endloop
  endfacet
  facet normal 0 -0 1
    outer loop
      vertex -25.613 -41.973 5
      vertex -21.589 -37.28 5
      vertex -27.26 -40.94 5
    endloop
  endfacet
  facet normal 0 0 1
    outer loop
      vertex -21.589 -37.28 5
      vertex -31.388 -37.872 5
      vertex -29.372 -39.449 5
    endloop
  endfacet
  facet normal 0 0 1
    outer loop
      vertex -21.589 -37.28 5
      vertex -29.372 -39.449 5
      vertex -27.26 -40.94 5
    endloop
  endfacet
  facet normal 0 0 1
    outer loop
      vertex -2.58 20.8 5
      vertex -34.895 34.895 5
      vertex -17.013 2.975 5
    endloop
  endfacet
  facet normal 0 0 1
    outer loop
      vertex -21.589 -37.28 5
      vertex -33.305 -36.211 5
      vertex -31.388 -37.872 5
    endloop
  endfacet
  facet normal -0 0 1
    outer loop
      vertex -36.283 33.449 5
      vertex -17.013 2.975 5
      vertex -34.895 34.895 5
    endloop
  endfacet
  facet normal -0 0 1
    outer loop
      vertex -37.612 31.948 5
      vertex -17.013 2.975 5
      vertex -36.283 33.449 5
    endloop
  endfacet
  facet normal 0 0 1
    outer loop
      vertex -21.589 -37.28 5
      vertex -35.123 -34.468 5
      vertex -33.305 -36.211 5
    endloop
  endfacet
  facet normal -0 0 1
    outer loop
      vertex -38.878 30.393 5
      vertex -17.013 2.975 5
      vertex -37.612 31.948 5
    endloop
  endfacet
  facet normal 0 0 1
    outer loop
      vertex -14.693 -26.123 5
      vertex -35.123 -34.468 5
      vertex -21.589 -37.28 5
    endloop
  endfacet
  facet normal -0 0 1
    outer loop
      vertex -40.08 28.788 5
      vertex -17.013 2.975 5
      vertex -38.878 30.393 5
    endloop
  endfacet
  facet normal -0 -0 1
    outer loop
      vertex -49.004 -4.585 5
      vertex -23.06 -4.68 5
      vertex -49.135 -0.15 5
    endloop
  endfacet
  facet normal -0 0 1
    outer loop
      vertex -41.215 27.133 5
      vertex -17.013 2.975 5
      vertex -40.08 28.788 5
    endloop
  endfacet
  facet normal 0 0 1
    outer loop
      vertex -14.693 -26.123 5
      vertex -38.456 -30.748 5
      vertex -36.841 -32.647 5
    endloop
  endfacet
  facet normal -0 0 1
    outer loop
      vertex -42.282 25.432 5
      vertex -17.013 2.975 5
      vertex -41.215 27.133 5
    endloop
  endfacet
  facet normal -0 0 1
    outer loop
      vertex -43.278 23.687 5
      vertex -17.013 2.975 5
      vertex -42.282 25.432 5
    endloop
  endfacet
  facet normal 0 0 1
    outer loop
      vertex -14.693 -26.123 5
      vertex -39.967 -28.774 5
      vertex -38.456 -30.748 5
    endloop
  endfacet
  facet normal -0 0 1
    outer loop
      vertex -44.2 21.9 5
      vertex -17.013 2.975 5
      vertex -43.278 23.687 5
    endloop
  endfacet
  facet normal 0 0 1
    outer loop
      vertex -22.415 -6.218 5
      vertex -41.373 -26.728 5
      vertex -39.967 -28.774 5
    endloop
  endfacet
  facet normal -0 0 1
    outer loop
      vertex -45.753 18.435 5
      vertex -17.013 2.975 5
      vertex -44.2 21.9 5
    endloop
  endfacet
  facet normal 0 0 1
    outer loop
      vertex -22.415 -6.218 5
      vertex -42.672 -24.61 5
      vertex -41.373 -26.728 5
    endloop
  endfacet
  facet normal -0 0 1
    outer loop
      vertex -47.01 14.973 5
      vertex -17.013 2.975 5
      vertex -45.753 18.435 5
    endloop
  endfacet
  facet normal 0 0 1
    outer loop
      vertex -22.415 -6.218 5
      vertex -43.863 -22.425 5
      vertex -42.672 -24.61 5
    endloop
  endfacet
  facet normal -0 0 1
    outer loop
      vertex -47.997 11.423 5
      vertex -17.013 2.975 5
      vertex -47.01 14.973 5
    endloop
  endfacet
  facet normal 0 0 1
    outer loop
      vertex -22.686 -5.959 5
      vertex -44.945 -20.173 5
      vertex -43.863 -22.425 5
    endloop
  endfacet
  facet normal 0 0 1
    outer loop
      vertex -22.686 -5.959 5
      vertex -45.915 -17.858 5
      vertex -44.945 -20.173 5
    endloop
  endfacet
  facet normal 0 0 1
    outer loop
      vertex -17.013 2.975 5
      vertex -47.997 11.423 5
      vertex -23.06 -4.68 5
    endloop
  endfacet
  facet normal 0 0 1
    outer loop
      vertex -22.88 -5.62 5
      vertex -46.774 -15.481 5
      vertex -45.915 -17.858 5
    endloop
  endfacet
  facet normal -0 0 1
    outer loop
      vertex -48.74 7.7 5
      vertex -23.06 -4.68 5
      vertex -47.997 11.423 5
    endloop
  endfacet
  facet normal 0 0 1
    outer loop
      vertex -22.88 -5.62 5
      vertex -47.518 -13.044 5
      vertex -46.774 -15.481 5
    endloop
  endfacet
  facet normal 0 0 1
    outer loop
      vertex -23.03 -5.128 5
      vertex -48.147 -10.549 5
      vertex -47.518 -13.044 5
    endloop
  endfacet
  facet normal -0 0 1
    outer loop
      vertex -48.922 6.184 5
      vertex -23.06 -4.68 5
      vertex -48.74 7.7 5
    endloop
  endfacet
  facet normal 0 -0 1
    outer loop
      vertex -48.859 -6.484 5
      vertex -23.06 -4.68 5
      vertex -49.004 -4.585 5
    endloop
  endfacet
  facet normal 0 0 1
    outer loop
      vertex -23.06 -4.68 5
      vertex -48.922 6.184 5
      vertex -49.048 4.285 5
    endloop
  endfacet
  facet normal 0 0 1
    outer loop
      vertex -23.06 -4.68 5
      vertex -48.859 -6.484 5
      vertex -48.66 -8 5
    endloop
  endfacet
  facet normal 0 0 1
    outer loop
      vertex -23.06 -4.68 5
      vertex -49.048 4.285 5
      vertex -49.135 -0.15 5
    endloop
  endfacet
  facet normal 0 0 1
    outer loop
      vertex -23.03 -5.128 5
      vertex -48.66 -8 5
      vertex -48.147 -10.549 5
    endloop
  endfacet
  facet normal -0.731421 0.681926 0
    outer loop
      vertex 34.7 -34.7 5
      vertex 36.932 -32.306 8
      vertex 36.932 -32.306 5
    endloop
  endfacet
  facet normal -0.731421 0.681926 0
    outer loop
      vertex 36.932 -32.306 8
      vertex 34.7 -34.7 5
      vertex 34.7 -34.7 8
    endloop
  endfacet
  facet normal -0.802093 0.597199 0
    outer loop
      vertex 15.045 42.58 5
      vertex 17.231 45.516 8
      vertex 17.231 45.516 5
    endloop
  endfacet
  facet normal -0.802093 0.597199 0
    outer loop
      vertex 17.231 45.516 8
      vertex 15.045 42.58 5
      vertex 15.045 42.58 8
    endloop
  endfacet
  facet normal -0.00710333 0.999975 0
    outer loop
      vertex 1.368 -48.95 5
      vertex -2.433 -48.977 8
      vertex 1.368 -48.95 8
    endloop
  endfacet
  facet normal -0.00710333 0.999975 0
    outer loop
      vertex -2.433 -48.977 8
      vertex 1.368 -48.95 5
      vertex -2.433 -48.977 5
    endloop
  endfacet
  facet normal -0.901442 -0.4329 0
    outer loop
      vertex 44.745 20.364 5
      vertex 43.664 22.615 8
      vertex 43.664 22.615 5
    endloop
  endfacet
  facet normal -0.901442 -0.4329 0
    outer loop
      vertex 43.664 22.615 8
      vertex 44.745 20.364 5
      vertex 44.745 20.364 8
    endloop
  endfacet
  facet normal 0.727379 0.686236 0
    outer loop
      vertex -35.123 -34.468 8
      vertex -36.841 -32.647 5
      vertex -36.841 -32.647 8
    endloop
  endfacet
  facet normal 0.727379 0.686236 0
    outer loop
      vertex -36.841 -32.647 5
      vertex -35.123 -34.468 8
      vertex -35.123 -34.468 5
    endloop
  endfacet
  facet normal -0.323932 -0.946081 0
    outer loop
      vertex 15.461 46.838 5
      vertex 16.565 46.46 8
      vertex 15.461 46.838 8
    endloop
  endfacet
  facet normal -0.323932 -0.946081 -0
    outer loop
      vertex 16.565 46.46 8
      vertex 15.461 46.838 5
      vertex 16.565 46.46 5
    endloop
  endfacet
  facet normal 0.69206 0.72184 -0
    outer loop
      vertex -33.305 -36.211 5
      vertex -35.123 -34.468 8
      vertex -33.305 -36.211 8
    endloop
  endfacet
  facet normal 0.69206 0.72184 0
    outer loop
      vertex -35.123 -34.468 8
      vertex -33.305 -36.211 5
      vertex -35.123 -34.468 5
    endloop
  endfacet
  facet normal -0.0507152 0.998713 0
    outer loop
      vertex 5.149 -48.758 5
      vertex 1.368 -48.95 8
      vertex 5.149 -48.758 8
    endloop
  endfacet
  facet normal -0.0507152 0.998713 0
    outer loop
      vertex 1.368 -48.95 8
      vertex 5.149 -48.758 5
      vertex 1.368 -48.95 5
    endloop
  endfacet
  facet normal -0.878033 -0.478599 0
    outer loop
      vertex 43.664 22.615 5
      vertex 42.473 24.8 8
      vertex 42.473 24.8 5
    endloop
  endfacet
  facet normal -0.878033 -0.478599 0
    outer loop
      vertex 42.473 24.8 8
      vertex 43.664 22.615 5
      vertex 43.664 22.615 8
    endloop
  endfacet
  facet normal -0.26627 -0.963898 0
    outer loop
      vertex 12.565 47.638 5
      vertex 15.461 46.838 8
      vertex 12.565 47.638 8
    endloop
  endfacet
  facet normal -0.26627 -0.963898 -0
    outer loop
      vertex 15.461 46.838 8
      vertex 12.565 47.638 5
      vertex 15.461 46.838 5
    endloop
  endfacet
  facet normal -0.113794 0.993504 0
    outer loop
      vertex 8.1 -48.42 5
      vertex 5.149 -48.758 8
      vertex 8.1 -48.42 8
    endloop
  endfacet
  facet normal -0.113794 0.993504 0
    outer loop
      vertex 5.149 -48.758 8
      vertex 8.1 -48.42 5
      vertex 5.149 -48.758 5
    endloop
  endfacet
  facet normal -0.698421 -0.715687 0
    outer loop
      vertex -5.26 -7.32 5
      vertex -4.804 -7.765 8
      vertex -5.26 -7.32 8
    endloop
  endfacet
  facet normal -0.698421 -0.715687 -0
    outer loop
      vertex -4.804 -7.765 8
      vertex -5.26 -7.32 5
      vertex -4.804 -7.765 5
    endloop
  endfacet
  facet normal -0.852624 -0.522524 0
    outer loop
      vertex 42.473 24.8 5
      vertex 41.175 26.918 8
      vertex 41.175 26.918 5
    endloop
  endfacet
  facet normal -0.852624 -0.522524 0
    outer loop
      vertex 41.175 26.918 8
      vertex 42.473 24.8 5
      vertex 42.473 24.8 8
    endloop
  endfacet
  facet normal -0.207676 0.978198 0
    outer loop
      vertex 11.887 -47.616 5
      vertex 8.1 -48.42 8
      vertex 11.887 -47.616 8
    endloop
  endfacet
  facet normal -0.207676 0.978198 0
    outer loop
      vertex 8.1 -48.42 8
      vertex 11.887 -47.616 5
      vertex 8.1 -48.42 5
    endloop
  endfacet
  facet normal -0.443452 -0.896298 0
    outer loop
      vertex -5.737 -7.084 5
      vertex -5.26 -7.32 8
      vertex -5.737 -7.084 8
    endloop
  endfacet
  facet normal -0.443452 -0.896298 -0
    outer loop
      vertex -5.26 -7.32 8
      vertex -5.737 -7.084 5
      vertex -5.26 -7.32 5
    endloop
  endfacet
  facet normal -0.824348 -0.566084 0
    outer loop
      vertex 41.175 26.918 5
      vertex 39.77 28.964 8
      vertex 39.77 28.964 5
    endloop
  endfacet
  facet normal -0.824348 -0.566084 0
    outer loop
      vertex 39.77 28.964 8
      vertex 41.175 26.918 5
      vertex 41.175 26.918 8
    endloop
  endfacet
  facet normal -0.794266 -0.60757 0
    outer loop
      vertex 39.77 28.964 5
      vertex 38.26 30.938 8
      vertex 38.26 30.938 5
    endloop
  endfacet
  facet normal -0.794266 -0.60757 0
    outer loop
      vertex 38.26 30.938 8
      vertex 39.77 28.964 5
      vertex 39.77 28.964 8
    endloop
  endfacet
  facet normal -0.123699 -0.99232 0
    outer loop
      vertex -6.828 -6.948 5
      vertex -5.737 -7.084 8
      vertex -6.828 -6.948 8
    endloop
  endfacet
  facet normal -0.123699 -0.99232 -0
    outer loop
      vertex -5.737 -7.084 8
      vertex -6.828 -6.948 5
      vertex -5.737 -7.084 5
    endloop
  endfacet
  facet normal -0.761999 -0.647578 0
    outer loop
      vertex 38.26 30.938 5
      vertex 36.647 32.836 8
      vertex 36.647 32.836 5
    endloop
  endfacet
  facet normal -0.761999 -0.647578 0
    outer loop
      vertex 36.647 32.836 8
      vertex 38.26 30.938 5
      vertex 38.26 30.938 8
    endloop
  endfacet
  facet normal -0.0216576 -0.999765 0
    outer loop
      vertex -13.66 -6.8 5
      vertex -6.828 -6.948 8
      vertex -13.66 -6.8 8
    endloop
  endfacet
  facet normal -0.0216576 -0.999765 -0
    outer loop
      vertex -6.828 -6.948 8
      vertex -13.66 -6.8 5
      vertex -6.828 -6.948 5
    endloop
  endfacet
  facet normal 0.855239 -0.518234 0
    outer loop
      vertex 4.32 9.56 8
      vertex 14.5 26.36 5
      vertex 14.5 26.36 8
    endloop
  endfacet
  facet normal 0.855239 -0.518234 0
    outer loop
      vertex 14.5 26.36 5
      vertex 4.32 9.56 8
      vertex 4.32 9.56 5
    endloop
  endfacet
  facet normal 0.784239 -0.620459 0
    outer loop
      vertex 16.578 -3.058 8
      vertex 22.7 4.68 5
      vertex 22.7 4.68 8
    endloop
  endfacet
  facet normal 0.784239 -0.620459 0
    outer loop
      vertex 22.7 4.68 5
      vertex 16.578 -3.058 8
      vertex 16.578 -3.058 5
    endloop
  endfacet
  facet normal 0.123699 0.99232 -0
    outer loop
      vertex 6.628 7.148 5
      vertex 5.537 7.284 8
      vertex 6.628 7.148 8
    endloop
  endfacet
  facet normal 0.123699 0.99232 0
    outer loop
      vertex 5.537 7.284 8
      vertex 6.628 7.148 5
      vertex 5.537 7.284 5
    endloop
  endfacet
  facet normal -0.852974 0.521954 0
    outer loop
      vertex -14.693 -26.123 5
      vertex -7.785 -14.834 8
      vertex -7.785 -14.834 5
    endloop
  endfacet
  facet normal -0.852974 0.521954 0
    outer loop
      vertex -7.785 -14.834 8
      vertex -14.693 -26.123 5
      vertex -14.693 -26.123 8
    endloop
  endfacet
  facet normal -0.0601097 -0.998192 0
    outer loop
      vertex -21.248 -6.548 5
      vertex -18.591 -6.708 8
      vertex -21.248 -6.548 8
    endloop
  endfacet
  facet normal -0.0601097 -0.998192 -0
    outer loop
      vertex -18.591 -6.708 8
      vertex -21.248 -6.548 5
      vertex -18.591 -6.708 5
    endloop
  endfacet
  facet normal -0.188239 -0.982123 0
    outer loop
      vertex -21.968 -6.41 5
      vertex -21.248 -6.548 8
      vertex -21.968 -6.41 8
    endloop
  endfacet
  facet normal -0.188239 -0.982123 -0
    outer loop
      vertex -21.248 -6.548 8
      vertex -21.968 -6.41 5
      vertex -21.248 -6.548 5
    endloop
  endfacet
  facet normal 0.0216576 0.999765 -0
    outer loop
      vertex 13.46 7 5
      vertex 6.628 7.148 8
      vertex 13.46 7 8
    endloop
  endfacet
  facet normal 0.0216576 0.999765 0
    outer loop
      vertex 6.628 7.148 8
      vertex 13.46 7 5
      vertex 6.628 7.148 5
    endloop
  endfacet
  facet normal -0.394664 -0.918826 0
    outer loop
      vertex -22.415 -6.218 5
      vertex -21.968 -6.41 8
      vertex -22.415 -6.218 8
    endloop
  endfacet
  facet normal -0.394664 -0.918826 -0
    outer loop
      vertex -21.968 -6.41 8
      vertex -22.415 -6.218 5
      vertex -21.968 -6.41 5
    endloop
  endfacet
  facet normal 0.0207751 0.999784 -0
    outer loop
      vertex 20.053 6.863 5
      vertex 13.46 7 8
      vertex 20.053 6.863 8
    endloop
  endfacet
  facet normal 0.0207751 0.999784 0
    outer loop
      vertex 13.46 7 8
      vertex 20.053 6.863 5
      vertex 13.46 7 5
    endloop
  endfacet
  facet normal -0.69092 -0.722932 0
    outer loop
      vertex -22.686 -5.959 5
      vertex -22.415 -6.218 8
      vertex -22.686 -5.959 8
    endloop
  endfacet
  facet normal -0.69092 -0.722932 -0
    outer loop
      vertex -22.415 -6.218 8
      vertex -22.686 -5.959 5
      vertex -22.415 -6.218 5
    endloop
  endfacet
  facet normal 0.875049 0.484034 0
    outer loop
      vertex 4.604 7.965 8
      vertex 4.323 8.473 5
      vertex 4.323 8.473 8
    endloop
  endfacet
  facet normal 0.875049 0.484034 0
    outer loop
      vertex 4.323 8.473 5
      vertex 4.604 7.965 8
      vertex 4.604 7.965 5
    endloop
  endfacet
  facet normal -0.86793 -0.496687 0
    outer loop
      vertex -22.686 -5.959 5
      vertex -22.88 -5.62 8
      vertex -22.88 -5.62 5
    endloop
  endfacet
  facet normal -0.86793 -0.496687 0
    outer loop
      vertex -22.88 -5.62 8
      vertex -22.686 -5.959 5
      vertex -22.686 -5.959 8
    endloop
  endfacet
  facet normal 0.698423 0.715685 -0
    outer loop
      vertex 5.06 7.52 5
      vertex 4.604 7.965 8
      vertex 5.06 7.52 8
    endloop
  endfacet
  facet normal 0.698423 0.715685 0
    outer loop
      vertex 4.604 7.965 8
      vertex 5.06 7.52 5
      vertex 4.604 7.965 5
    endloop
  endfacet
  facet normal -0.956532 -0.291628 0
    outer loop
      vertex -22.88 -5.62 5
      vertex -23.03 -5.128 8
      vertex -23.03 -5.128 5
    endloop
  endfacet
  facet normal -0.956532 -0.291628 0
    outer loop
      vertex -23.03 -5.128 8
      vertex -22.88 -5.62 5
      vertex -22.88 -5.62 8
    endloop
  endfacet
  facet normal 0.443451 0.896298 -0
    outer loop
      vertex 5.537 7.284 5
      vertex 5.06 7.52 8
      vertex 5.537 7.284 8
    endloop
  endfacet
  facet normal 0.443451 0.896298 0
    outer loop
      vertex 5.06 7.52 8
      vertex 5.537 7.284 5
      vertex 5.06 7.52 5
    endloop
  endfacet
  facet normal -0.997766 -0.0668119 0
    outer loop
      vertex -23.03 -5.128 5
      vertex -23.06 -4.68 8
      vertex -23.06 -4.68 5
    endloop
  endfacet
  facet normal -0.997766 -0.0668119 0
    outer loop
      vertex -23.06 -4.68 8
      vertex -23.03 -5.128 5
      vertex -23.03 -5.128 8
    endloop
  endfacet
  facet normal 0.0926416 0.9957 -0
    outer loop
      vertex 21.332 6.744 5
      vertex 20.053 6.863 8
      vertex 21.332 6.744 8
    endloop
  endfacet
  facet normal 0.0926416 0.9957 0
    outer loop
      vertex 20.053 6.863 8
      vertex 21.332 6.744 5
      vertex 20.053 6.863 5
    endloop
  endfacet
  facet normal -0.784704 0.61987 0
    outer loop
      vertex -23.06 -4.68 5
      vertex -17.013 2.975 8
      vertex -17.013 2.975 5
    endloop
  endfacet
  facet normal -0.784704 0.61987 0
    outer loop
      vertex -17.013 2.975 8
      vertex -23.06 -4.68 5
      vertex -23.06 -4.68 8
    endloop
  endfacet
  facet normal -0.0186542 -0.999826 0
    outer loop
      vertex -18.591 -6.708 5
      vertex -13.66 -6.8 8
      vertex -18.591 -6.708 8
    endloop
  endfacet
  facet normal -0.0186542 -0.999826 -0
    outer loop
      vertex -13.66 -6.8 8
      vertex -18.591 -6.708 5
      vertex -13.66 -6.8 5
    endloop
  endfacet
  facet normal 0.777302 -0.629128 0
    outer loop
      vertex -15.273 -42.413 8
      vertex 2.22 -20.8 5
      vertex 2.22 -20.8 8
    endloop
  endfacet
  facet normal 0.777302 -0.629128 0
    outer loop
      vertex 2.22 -20.8 5
      vertex -15.273 -42.413 8
      vertex -15.273 -42.413 5
    endloop
  endfacet
  facet normal 0.985251 -0.171113 0
    outer loop
      vertex 4.225 9.013 8
      vertex 4.32 9.56 5
      vertex 4.32 9.56 8
    endloop
  endfacet
  facet normal 0.985251 -0.171113 0
    outer loop
      vertex 4.32 9.56 5
      vertex 4.225 9.013 8
      vertex 4.225 9.013 5
    endloop
  endfacet
  facet normal -0.85063 0.525764 0
    outer loop
      vertex -21.589 -37.28 5
      vertex -14.693 -26.123 8
      vertex -14.693 -26.123 5
    endloop
  endfacet
  facet normal -0.85063 0.525764 0
    outer loop
      vertex -14.693 -26.123 8
      vertex -21.589 -37.28 5
      vertex -21.589 -37.28 8
    endloop
  endfacet
  facet normal 0.983928 0.178566 0
    outer loop
      vertex 4.323 8.473 8
      vertex 4.225 9.013 5
      vertex 4.225 9.013 8
    endloop
  endfacet
  facet normal 0.983928 0.178566 0
    outer loop
      vertex 4.225 9.013 5
      vertex 4.323 8.473 8
      vertex 4.323 8.473 5
    endloop
  endfacet
  facet normal 0.258721 0.965952 -0
    outer loop
      vertex -12.3 -47.535 5
      vertex -15.481 -46.683 8
      vertex -12.3 -47.535 8
    endloop
  endfacet
  facet normal 0.258721 0.965952 0
    outer loop
      vertex -15.481 -46.683 8
      vertex -12.3 -47.535 5
      vertex -15.481 -46.683 5
    endloop
  endfacet
  facet normal 0.209939 0.977715 -0
    outer loop
      vertex -8.714 -48.305 5
      vertex -12.3 -47.535 8
      vertex -8.714 -48.305 8
    endloop
  endfacet
  facet normal 0.209939 0.977715 0
    outer loop
      vertex -12.3 -47.535 8
      vertex -8.714 -48.305 5
      vertex -12.3 -47.535 5
    endloop
  endfacet
  facet normal 0.155389 0.987853 -0
    outer loop
      vertex -5.44 -48.82 5
      vertex -8.714 -48.305 8
      vertex -5.44 -48.82 8
    endloop
  endfacet
  facet normal 0.155389 0.987853 0
    outer loop
      vertex -8.714 -48.305 8
      vertex -5.44 -48.82 5
      vertex -8.714 -48.305 5
    endloop
  endfacet
  facet normal 0.052141 0.99864 -0
    outer loop
      vertex -2.433 -48.977 5
      vertex -5.44 -48.82 8
      vertex -2.433 -48.977 8
    endloop
  endfacet
  facet normal 0.052141 0.99864 0
    outer loop
      vertex -5.44 -48.82 8
      vertex -2.433 -48.977 5
      vertex -5.44 -48.82 5
    endloop
  endfacet
  facet normal 0.616129 0.787645 -0
    outer loop
      vertex -29.372 -39.449 5
      vertex -31.388 -37.872 8
      vertex -29.372 -39.449 8
    endloop
  endfacet
  facet normal 0.616129 0.787645 0
    outer loop
      vertex -31.388 -37.872 8
      vertex -29.372 -39.449 5
      vertex -31.388 -37.872 5
    endloop
  endfacet
  facet normal 0.576728 0.816936 -0
    outer loop
      vertex -27.26 -40.94 5
      vertex -29.372 -39.449 8
      vertex -27.26 -40.94 8
    endloop
  endfacet
  facet normal 0.576728 0.816936 0
    outer loop
      vertex -29.372 -39.449 8
      vertex -27.26 -40.94 5
      vertex -29.372 -39.449 5
    endloop
  endfacet
  facet normal 0.53134 0.847159 -0
    outer loop
      vertex -25.613 -41.973 5
      vertex -27.26 -40.94 8
      vertex -25.613 -41.973 8
    endloop
  endfacet
  facet normal 0.53134 0.847159 0
    outer loop
      vertex -27.26 -40.94 8
      vertex -25.613 -41.973 5
      vertex -27.26 -40.94 5
    endloop
  endfacet
endsolid OpenSCAD_Model
